<!-- This Source Code Form is subject to the terms of the Mozilla Public
   - License, v. 2.0. If a copy of the MPL was not distributed with this
   - file, You can obtain one at http://mozilla.org/MPL/2.0/. -->
<svg width="110" height="110" viewBox="0 0 110 110" fill="none" xmlns="http://www.w3.org/2000/svg">
<g opacity="0.8">
<circle cx="55" cy="55" r="55" fill="#5B5B66"/>
<g opacity="0.7">
<path d="M99.4221 39.7109L63.4972 26.3298C62.5449 25.975 61.4384 26.5858 61.0256 27.6939L44.2449 72.7459C43.8321 73.854 44.2695 75.0399 45.2218 75.3946L81.1467 88.7757C82.099 89.1304 83.2056 88.5196 83.6183 87.4115L100.399 42.3596C100.812 41.2514 100.374 40.0656 99.4221 39.7109Z" fill="black" fill-opacity="0.25"/>
<path d="M98.1593 35.9117L59.711 21.5907C58.6918 21.2111 57.531 21.8016 57.1183 22.9097L40.3375 67.9617C39.9248 69.0698 40.4164 70.2759 41.4356 70.6555L79.8839 84.9765C80.9031 85.3562 82.0639 84.7656 82.4766 83.6575L99.2574 38.6055C99.6701 37.4974 99.1785 36.2913 98.1593 35.9117Z" fill="#BFBFC9"/>
<path d="M65.384 31.216L59.8828 29.167L57.8338 34.6682L63.3349 36.7172L65.384 31.216Z" fill="#5B5B66" stroke="#5B5B66" stroke-width="2" stroke-linejoin="round"/>
<path d="M70.2927 34.9553L90.5796 42.5116C91.17 42.7315 91.4709 43.3885 91.2512 43.979C91.0313 44.5695 90.3735 44.8703 89.783 44.6503L69.4961 37.094C68.9058 36.8738 68.6058 36.2164 68.8257 35.626C69.0458 35.0359 69.7024 34.7356 70.2927 34.9553Z" fill="#5B5B66" stroke="#5B5B66"/>
<path d="M61.7433 40.9973L56.2421 38.9482L54.193 44.4494L59.6942 46.4985L61.7433 40.9973Z" stroke="#5B5B66" stroke-width="2" stroke-linejoin="round"/>
<path d="M60.1765 31.7933L61.2699 34.216L66.0726 31.7795" stroke="#BFBFC9" stroke-width="2" stroke-linecap="round" stroke-linejoin="round"/>
<path d="M87.1126 51.8264L66.8257 44.2701C65.9764 43.9537 65.0314 44.3858 64.715 45.2351C64.3987 46.0844 64.8307 47.0294 65.6801 47.3457L85.9669 54.9021C86.8163 55.2184 87.7612 54.7864 88.0776 53.9371C88.3939 53.0877 87.9619 52.1428 87.1126 51.8264Z" stroke="#5B5B66" stroke-width="2"/>
<path d="M58.0997 50.7785L52.5985 48.7295L50.5495 54.2307L56.0506 56.2797L58.0997 50.7785Z" stroke="#5B5B66" stroke-width="2" stroke-linejoin="round"/>
<path d="M83.4658 61.6087L63.1789 54.0523C62.3296 53.7359 61.3847 54.168 61.0683 55.0173C60.752 55.8666 61.184 56.8116 62.0333 57.128L82.3202 64.6843C83.1695 65.0007 84.1145 64.5686 84.4309 63.7193C84.7472 62.87 84.3151 61.925 83.4658 61.6087Z" stroke="#5B5B66" stroke-width="2" stroke-linejoin="round"/>
<path d="M54.3468 61.4592L48.8456 59.4102L46.7965 64.9113L52.2977 66.9604L54.3468 61.4592Z" stroke="#5B5B66" stroke-width="2" stroke-linejoin="round"/>
<path d="M79.7129 72.2893L59.426 64.733C58.5767 64.4166 57.6317 64.8487 57.3154 65.698C56.999 66.5473 57.4311 67.4923 58.2804 67.8086L78.5673 75.365C79.4166 75.6813 80.3616 75.2493 80.6779 74.4C80.9943 73.5506 80.5622 72.6057 79.7129 72.2893Z" stroke="#5B5B66" stroke-width="2" stroke-linejoin="round"/>
</g>
<path d="M67.2699 23.457L21.102 29.1748C19.8782 29.3263 19.0291 30.6036 19.2054 32.0277L26.3759 89.925C26.5523 91.3491 27.6873 92.3807 28.9112 92.2291L75.0791 86.5113C76.3029 86.3597 77.152 85.0824 76.9756 83.6584L69.8052 25.7611C69.6288 24.337 68.4938 23.3054 67.2699 23.457Z" fill="black" fill-opacity="0.25"/>
<path d="M63.7824 20.0742L14.3716 26.1936C13.0618 26.3558 12.143 27.6417 12.3193 29.0658L19.4898 86.9631C19.6662 88.3872 20.8709 89.4101 22.1807 89.2479L71.5915 83.1285C72.9013 82.9663 73.8201 81.6804 73.6437 80.2563L66.4733 22.359C66.2969 20.9349 65.0921 19.912 63.7824 20.0742Z" fill="#F0F0F4"/>
<path d="M25.8704 33.3764L18.8007 34.252L19.6762 41.3217L26.7459 40.4461L25.8704 33.3764Z" fill="#8F8F9D" stroke="#8F8F9D" stroke-width="2" stroke-linejoin="round"/>
<path d="M33.2363 34.5474L59.3076 31.3185C60.125 31.2173 60.8695 31.7978 60.9708 32.6151C61.072 33.4326 60.4916 34.1771 59.6742 34.2783L33.6029 37.5072C32.7855 37.6083 32.0409 37.0279 31.9397 36.2106C31.8386 35.3933 32.419 34.6487 33.2363 34.5474Z" fill="#8F8F9D" stroke="#8F8F9D"/>
<path d="M27.4294 45.9457L20.3597 46.8213L21.2353 53.891L28.305 53.0154L27.4294 45.9457Z" fill="#8F8F9D" stroke="#8F8F9D" stroke-width="2" stroke-linejoin="round"/>
<path d="M20.5875 36.916L23.1216 38.9116L26.9269 33.5987" stroke="#FBFBFE" stroke-width="2" stroke-linecap="round" stroke-linejoin="round"/>
<path d="M60.8053 43.3946L34.7341 46.6234C33.6426 46.7586 32.8674 47.753 33.0026 48.8445C33.1378 49.9359 34.1322 50.7112 35.2236 50.576L61.2948 47.3472C62.3863 47.212 63.1615 46.2176 63.0263 45.1261C62.8911 44.0346 61.8967 43.2594 60.8053 43.3946Z" fill="#8F8F9D" stroke="#8F8F9D" stroke-width="2"/>
<path d="M28.9852 58.5141L21.9155 59.3896L22.7911 66.4593L29.8608 65.5838L28.9852 58.5141Z" fill="#8F8F9D" stroke="#8F8F9D" stroke-width="2" stroke-linejoin="round"/>
<path d="M62.3582 55.9658L36.2871 59.1947C35.1956 59.3299 34.4204 60.3243 34.5556 61.4158C34.6907 62.5072 35.6851 63.2825 36.7766 63.1473L62.8478 59.9185C63.9392 59.7833 64.7145 58.7889 64.5793 57.6974C64.4441 56.6059 63.4497 55.8307 62.3582 55.9658Z" fill="#8F8F9D" stroke="#8F8F9D" stroke-width="2" stroke-linejoin="round"/>
<path d="M30.9281 72.1137L23.8584 72.9893L24.734 80.059L31.8037 79.1834L30.9281 72.1137Z" fill="#8F8F9D" stroke="#8F8F9D" stroke-width="2" stroke-linejoin="round"/>
<path d="M64.3011 69.5655L38.23 72.7943C37.1385 72.9295 36.3632 73.9239 36.4984 75.0154C36.6336 76.1068 37.628 76.8821 38.7195 76.7469L64.7906 73.5181C65.8821 73.3829 66.6573 72.3885 66.5222 71.297C66.387 70.2055 65.3926 69.4303 64.3011 69.5655Z" fill="#8F8F9D" stroke="#8F8F9D" stroke-width="2" stroke-linejoin="round"/>
</g>
</svg>
