<!-- This Source Code Form is subject to the terms of the Mozilla Public
   - License, v. 2.0. If a copy of the MPL was not distributed with this
   - file, You can obtain one at http://mozilla.org/MPL/2.0/. -->
<svg width="110" height="110" viewBox="0 0 110 110" fill="none" xmlns="http://www.w3.org/2000/svg">
<circle cx="55" cy="55" r="55" fill="#F0F0F4"/>
<g opacity="0.7">
<path d="M99.4221 39.7109L63.4972 26.3298C62.5449 25.975 61.4384 26.5858 61.0256 27.6939L44.2449 72.7459C43.8321 73.854 44.2695 75.0399 45.2218 75.3946L81.1467 88.7757C82.099 89.1304 83.2056 88.5196 83.6183 87.4115L100.399 42.3596C100.812 41.2514 100.374 40.0656 99.4221 39.7109Z" fill="black" fill-opacity="0.25"/>
<path d="M98.1594 35.9107L59.7111 21.5897C58.6919 21.2101 57.5311 21.8006 57.1183 22.9088L40.3376 67.9607C39.9248 69.0688 40.4165 70.2749 41.4356 70.6545L79.8839 84.9756C80.9031 85.3552 82.0639 84.7646 82.4767 83.6565L99.2574 38.6045C99.6702 37.4964 99.1785 36.2904 98.1594 35.9107Z" fill="#FBFBFE"/>
<path d="M65.3841 31.216L59.8829 29.167L57.8338 34.6682L63.335 36.7172L65.3841 31.216Z" fill="#BFBFC9" stroke="#BFBFC9" stroke-width="2" stroke-linejoin="round"/>
<path d="M70.2928 34.9553L90.5796 42.5116C91.1701 42.7315 91.471 43.3885 91.2513 43.979C91.0313 44.5695 90.3736 44.8703 89.783 44.6503L69.4962 37.094C68.9059 36.8738 68.6059 36.2164 68.8258 35.626C69.0458 35.0359 69.7025 34.7356 70.2928 34.9553Z" fill="#BFBFC9" stroke="#BFBFC9"/>
<path d="M61.7433 40.9983L56.2421 38.9492L54.193 44.4504L59.6942 46.4995L61.7433 40.9983Z" stroke="#BFBFC9" stroke-width="2" stroke-linejoin="round"/>
<path d="M60.1766 31.7943L61.27 34.217L66.0727 31.7805" stroke="#FBFBFE" stroke-width="2" stroke-linecap="round" stroke-linejoin="round"/>
<path d="M87.1126 51.8274L66.8257 44.271C65.9764 43.9547 65.0314 44.3868 64.7151 45.2361C64.3987 46.0854 64.8308 47.0304 65.6801 47.3467L85.967 54.9031C86.8163 55.2194 87.7613 54.7874 88.0776 53.938C88.394 53.0887 87.9619 52.1438 87.1126 51.8274Z" stroke="#BFBFC9" stroke-width="2"/>
<path d="M58.0998 50.7785L52.5986 48.7295L50.5495 54.2307L56.0507 56.2797L58.0998 50.7785Z" stroke="#BFBFC9" stroke-width="2" stroke-linejoin="round"/>
<path d="M83.4658 61.6087L63.1789 54.0523C62.3296 53.7359 61.3847 54.168 61.0683 55.0173C60.752 55.8666 61.184 56.8116 62.0333 57.128L82.3202 64.6843C83.1695 65.0007 84.1145 64.5686 84.4309 63.7193C84.7472 62.87 84.3151 61.925 83.4658 61.6087Z" stroke="#BFBFC9" stroke-width="2" stroke-linejoin="round"/>
<path d="M54.3469 61.4592L48.8457 59.4102L46.7966 64.9113L52.2978 66.9604L54.3469 61.4592Z" stroke="#BFBFC9" stroke-width="2" stroke-linejoin="round"/>
<path d="M79.713 72.2893L59.4261 64.733C58.5768 64.4166 57.6318 64.8487 57.3154 65.698C56.9991 66.5473 57.4311 67.4923 58.2805 67.8086L78.5673 75.365C79.4167 75.6813 80.3616 75.2493 80.678 74.4C80.9943 73.5506 80.5623 72.6057 79.713 72.2893Z" stroke="#BFBFC9" stroke-width="2" stroke-linejoin="round"/>
</g>
<path d="M67.2699 23.457L21.102 29.1748C19.8782 29.3263 19.0291 30.6036 19.2054 32.0277L26.3759 89.925C26.5523 91.3491 27.6873 92.3807 28.9112 92.2291L75.0791 86.5113C76.3029 86.3597 77.152 85.0824 76.9756 83.6584L69.8052 25.7611C69.6288 24.337 68.4938 23.3054 67.2699 23.457Z" fill="black" fill-opacity="0.25"/>
<path d="M63.7824 20.0742L14.3716 26.1936C13.0618 26.3558 12.143 27.6417 12.3193 29.0658L19.4898 86.9631C19.6662 88.3872 20.8709 89.4101 22.1807 89.2479L71.5915 83.1285C72.9013 82.9663 73.8201 81.6804 73.6437 80.2563L66.4733 22.359C66.2969 20.9349 65.0921 19.912 63.7824 20.0742Z" fill="#FBFBFE"/>
<path d="M25.8704 33.3764L18.8007 34.252L19.6762 41.3217L26.7459 40.4461L25.8704 33.3764Z" fill="#BFBFC9" stroke="#BFBFC9" stroke-width="2" stroke-linejoin="round"/>
<path d="M33.2364 34.5474L59.3077 31.3185C60.1251 31.2173 60.8695 31.7978 60.9709 32.6151C61.0721 33.4326 60.4917 34.1771 59.6742 34.2783L33.6029 37.5072C32.7856 37.6083 32.041 37.0279 31.9397 36.2106C31.8386 35.3933 32.4191 34.6487 33.2364 34.5474Z" fill="#BFBFC9" stroke="#BFBFC9"/>
<path d="M27.4294 45.9457L20.3597 46.8213L21.2353 53.891L28.305 53.0154L27.4294 45.9457Z" stroke="#BFBFC9" stroke-width="2" stroke-linejoin="round"/>
<path d="M20.5876 36.916L23.1217 38.9116L26.927 33.5987" stroke="#FBFBFE" stroke-width="2" stroke-linecap="round" stroke-linejoin="round"/>
<path d="M60.8053 43.3946L34.7341 46.6234C33.6426 46.7586 32.8674 47.753 33.0026 48.8445C33.1378 49.9359 34.1322 50.7112 35.2236 50.576L61.2948 47.3472C62.3863 47.212 63.1615 46.2176 63.0263 45.1261C62.8911 44.0346 61.8967 43.2594 60.8053 43.3946Z" stroke="#BFBFC9" stroke-width="2"/>
<path d="M28.9853 58.5151L21.9156 59.3906L22.7912 66.4603L29.8609 65.5848L28.9853 58.5151Z" stroke="#BFBFC9" stroke-width="2" stroke-linejoin="round"/>
<path d="M62.3583 55.9668L36.2872 59.1957C35.1957 59.3308 34.4204 60.3253 34.5556 61.4167C34.6908 62.5082 35.6852 63.2835 36.7767 63.1483L62.8478 59.9194C63.9393 59.7842 64.7145 58.7898 64.5794 57.6984C64.4442 56.6069 63.4498 55.8316 62.3583 55.9668Z" stroke="#BFBFC9" stroke-width="2" stroke-linejoin="round"/>
<path d="M30.9282 72.1137L23.8585 72.9893L24.734 80.059L31.8037 79.1834L30.9282 72.1137Z" stroke="#BFBFC9" stroke-width="2" stroke-linejoin="round"/>
<path d="M64.3012 69.5655L38.23 72.7943C37.1385 72.9295 36.3633 73.9239 36.4985 75.0154C36.6337 76.1068 37.6281 76.8821 38.7195 76.7469L64.7907 73.5181C65.8822 73.3829 66.6574 72.3885 66.5222 71.297C66.3871 70.2055 65.3926 69.4303 64.3012 69.5655Z" stroke="#BFBFC9" stroke-width="2" stroke-linejoin="round"/>
</svg>
