<!-- This Source Code Form is subject to the terms of the Mozilla Public
   - License, v. 2.0. If a copy of the MPL was not distributed with this
   - file, You can obtain one at http://mozilla.org/MPL/2.0/. -->
<svg xmlns="http://www.w3.org/2000/svg" width="196" height="132" fill="none"><path fill="#FCE9D3" d="M93.972 84.956c0-.094-.008-.188-.014-.28 1.678 0 3.356-.002 5.034-.005a3.27 3.27 0 0 0-.014.285h-5.006ZM48.25 50.278c-.105 0-.21-.003-.312-.005V48.27h.334c-.005.669-.013 1.338-.019 2.007h-.003Z"/><path fill="#F3A33F" d="m48.25 49.726.02-2.008c-.042-3.044 1.697-5.065 3.195-7.506 1.65-2.69.558-2.522-.509-5.411-2.283-6.186 1.902-11.226 7.704-11.94 5.022-.616 10.609.883 11.61 6.913.292 1.767-1.115 3.752-.545 5.433.647 1.902 4.149 2.527 5.744 1.407 1.904-1.338 2.233-5.142 2.839-7.238.892-3.091 1.849-6.141 2.927-9.171 1.901-5.337 4.237-13.103 8.016-17.737 3.778-4.634 5.835 7.985 6.706 10.755.9 2.865 1.384 5.856 1.954 8.81.552 2.87.572 7.202 2.211 9.676 2.35-1.78 3.978-6.422 5.318-9.04 1.786-3.488 3.585-6.966 5.692-10.273 1.705-2.679 3.535-5.405 5.79-7.661 2.778-2.776 3.425-3.246 4.42.721.824 3.285 3.931 18.788 3.931 18.788l9.398-3.87 9.122 12.165s.74 11.474.79 17.845c.028 3.268.459 5.712-1.708 8.272-2.242 2.652-4.915 5.074-7.505 7.386-10.83 9.663-22.409 14.78-36.384 18.077-1.678 0-3.356.002-5.034.005-13.077-1.324-24.25-6.37-33.224-16.252-5.015-5.519-9.293-11.43-12.483-18.146h.005Z"/><path fill="#E9701C" d="M91.316 71.762c-2.425-.34-4.299-.456-6.09-.893-1.84-.448-3.145-1.874-3.74-3.555-1.34-3.802-2.593-7.656-3.527-11.577-.846-3.553-1.28-7.208-1.772-10.836-.165-1.216-.53-1.1-1.462-.744-7.861 3.02-15.22 2.063-22.033-2.925-.605-.445-.926-.744-.387-1.579.26-.403.028-1.396-.32-1.88-2.137-2.972-2.209-6.05-.71-9.27.138-.302.306-.6.519-.85.354-.409.956-1.642 1.338-2.026.276 9.677 6.08 12.719 15.203 10.506.876-.066 1.108-.03 1.896.76 1.257 1.262 4.052 1.3 5.473.288.398-.284.644-.882.799-1.385 1.152-3.763 2.158-7.576 3.413-11.303 2.46-7.305 4.94-14.615 9.136-21.17.329-.512.86-.897 1.293-1.34-.01.634.028 1.273-.041 1.9-.802 7.554-1.78 15.094-2.38 22.665-.404 5.082-.351 10.205-.376 15.312-.036 8.12 2.53 15.6 5.863 22.868.367.802.743 1.629.928 2.486.51 2.334-1.271 4.526-3.026 4.554l.002-.006Z"/><path fill="#EA7220" d="M101.781 30.048c3.67-7.579 8.134-16.418 13.585-22.946 1.02-1.222 2.27-2.256 3.414-3.376.232-.009.467-.014.699-.022-1.371 5.09-3.27 9.962-5.649 14.676-2.087 4.128-5.344 7.476-9.006 10.009-.498.346-2.858 1.653-3.041 1.659h-.002Z"/><path fill="#FBF0D4" d="M110.236 76.983c-4.901-.246-10.313-.445-15.711-.81-5.056-.343-10.098-.86-15.142-1.317-.655-.058-1.302-.27-1.954-.298-2.37-.102-2.35-.091-3.165-2.436-1.81-5.2-3.663-10.388-5.462-15.594-1.208-3.495-1.203-3.617 2.421-4.291 4.052-.755 14.791-2.055 15.634-2.281.406-.111.055-.512.238-.9 2.01-4.243 6.91-5.9 11.59-4.506.683.205 1.393.318 2.084.5 2.186.578 3.414 2.18 4.138 4.15.273.744.533 1.051 1.321 1.154 3.273.417 6.534.926 9.804 1.377 3.157.436 6.314.893 9.484 1.241 1.874.205 2.021.373 1.692 2.132-1.017 5.438-1.974 10.888-2.936 16.335-.237 1.347-.45 2.701-.583 4.062-.086.89-.553 1.025-1.324 1.048-3.87.11-7.737.273-12.123.436l-.006-.002Z"/><path fill="#E0AF70" d="M106.405 84.005c-.249-.085-1.014-.113-1.349-.506-1.736-2.046-4.45-1.968-6.612-3.094-1.465-.763-3.35-.87-5.066-.967-5.733-.324-11.477-.493-17.213-.755-2.288-.105-3.759-1.258-4.138-3.12-.348-1.713.611-3.323 2.596-4.335.196-.099.406-.176.616-.246 1.111-.359 1.905-.702.907-2.123-.44-.625-.412-1.717-.304-2.56.293-2.29.652-4.58 1.164-6.83.237-1.048-.064-1.321-.987-1.562-2.032-.528-2.93-1.606-2.91-3.274.016-1.63.956-2.83 2.979-3.248 3.057-.628 7.134-.913 10.216-1.427 1.05-.177.453.003.484 1.167.041 1.52.207 3.105.702 4.529.931 2.695 3.088 4.197 5.727 5.115.545.188 1.147.578 1.446 1.05 2.374 3.728 4.577 7.593 7.916 10.573 2.057 1.836 4.337 3.424 6.427 5.226.686.592 1.656 1.637 1.518 2.265-.68 3.124-1.803 4.172-4.119 4.125v-.003Z"/><path fill="#E8C496" d="M114.965 79.117c.531-.116 1.056-.29 1.593-.326.306-.022.63.18.948.282-.291.207-.567.558-.874.586-.553.05-1.125-.091-1.689-.152.009-.13.014-.26.022-.39Z"/><path fill="#945AFB" d="M35.386 119.184c0-1.872.968-6.664-.625-7.872-1.47-1.114-4.325.442-5.7-.559-3.449-2.521-1.61-13.835-1.586-17.488.042-6.31-.199-12.644-.334-18.95-.056-2.572-.611-5.431.923-7.679 1.595-2.339 3.16-1.167 5.716-1.75 1.659-1.66-.478-2.715-1.105-4.147-.567-1.294-.429-2.765.398-3.99 1.45-2.154 5.417-1.839 7.617-.987 2.51.97 3.273 2.521 2.013 5.09-.852 1.734-3.754 2.389-1.512 4.435 1.078.984 5.857.705 6.976-.078-.013-3.088-.237-5.668-.29-7.512-.05-1.78-.627-8.126.271-9.605 1.214-1.994 7.145-1.8 9.127-1.95 5.258-.395 12.914-.566 17.182 3.205 3.422 3.025 3.909 8.602 4.334 12.83.33 3.273.448 6.594.401 9.881-.05 3.617-.591 2.737-2.999 4.576-2.283 1.745-1.354 4.123-1.216 7.076.163 3.553.323 7.108.45 10.664 4.542-.868 9.578.846 13.757 2.76 1.302.597 3.95 3.19 5.139 3.223 1.81.053 4.249-3.594 5.58-4.96 3.381-3.459 6.964-6.716 10.662-9.832 1.46-1.228 2.902-1.853 3.054-3.689.036-.42-.771-2.156-.884-2.798-.26-1.44-.136-2.928-.108-4.382.102-5.347.318-10.7.52-16.042.177-4.668-.379-10.38 4.389-7.87 5.252 2.766 6.794-5.04 4.274-8.717-2.715-3.954-5.045 3.105-8.144 1.805-2.178-.915-.315-9.265-.464-11.253-.088-1.189 8.381-6.459 11.913-8.043 2.734-1.228 8.583-5.068 11.049-3.724l8.112 12.013c1.172 4.844.164 11.317.224 16.313.036 3.02.042 6.044.114 9.064.041 1.728-.595 5.463.832 6.752 2.858 2.58 10.083-1.455 13.207.495 4.268 2.662-1.051 8.505.588 11.58 1.758 3.292 5.122-2.86 8.318-.598 2.756 1.952 3.607 9.575.307 11.267-2.961 1.518-6.806-2.555-7.892 2.01-1.097 4.612 2.192 10.322.804 14.859-1.285 4.2-4.884 1.037-7.338 3.008-1.172.943-.564 4.43-.584 5.583-.049 3.055-.091 6.11-.149 9.168-.025 1.377.337 3.13-.815 3.888-.852.558-5.404-.252-6.435-.166-2.726.229-10.606 2.789-9.045-2.627.929-3.216 5.932-5.71 2.043-9.202-3.096-2.779-8.32-1.924-10.169 1.762-2.615 5.203 3.251 3.895 4.105 7.545 1.05 4.487-9.282 2.311-11.742 2.361-3.602.075-10.8 1.554-13.735-1.194-2.621-2.453-1.305-7.844-1.352-11.063-.039-2.662.163-4.565-2.54-5.416-1.067-.337-4.475-.633-5.307-.116-1.944 1.202-.512 3.32-.451 5.601.08 3.089.163 6.175.205 9.263.022 1.595.688 4.57-.503 5.909-2.14 2.394-10.747.448-13.658.492-6.175.094-12.237 1.142-18.423 1.106-4.984-.028-7.69-.788-5.266-5.997 2.118-4.554-.594-8.649-5.868-6.487-1.857.76-3.353 2.348-3.12 4.501.187 1.753 3.09 3.556 2.72 5.395-.52 2.588-8.746 1.642-10.836 1.559-2.051-.08-5.31.042-6.584-1.866-1.357-2.032-.545-6.202-.545-8.43Z"/><path fill="#855BF3" d="M26.79 94.697c0-6.229.058-12.458.008-18.685-.039-4.993-.849-10.518 5.094-11.09 5.802-.559-.721-3.608.373-7.161 1.272-4.137 9.25-3.725 10.504.135 1.045 3.207-5.66 6.058-.97 7.543 1.24.393 5.42.658 6.255-.299 0 0 .097-7.448.033-9.475-.155-4.91-1.49-11.55 2.756-15.323 2.079-1.847 2.424-.595 5.302-.061 2.838.525 6.404.13 8.983-1.178 2.034-1.034 2.795-2.68 4.975-2.898 1.966-.196 4.238 1.081 5.977 1.861 1.926.868 4.972 1.756 5.882 3.763 1.185 2.627.511 7.048.627 9.929.252 6.31.368 12.62.514 18.931.15 6.327-.73 9.84-4.218 15.133-2.523 3.827-5.769 7.993-9.547 10.659-5.481 3.865-7.455-.122-10.393-4.501-1.352-2.016-1.99-5.348-4.147-4.424-1.697.727-4.834 5.601-5.99 7.117-1.16 1.52-2.365 4.744-4.253 5.455-3.555 1.343-2.532-1.886-3.077-4.084-1.404-5.663-8.082.08-7.413 4.161.713 4.327 9.014 1.922 5.036 7.291-1.775 2.395-8.002 5.508-10.636 2.688-2.502-2.677-1.451-12.196-1.67-15.492l-.005.005Z"/><path fill="#865BF3" d="M105.852 116.726c-.959-6.503-2.186-13.806 1.108-19.916 2.588-4.8 9.75-8.93 14.626-4.637 1.072.946 1.219 2.986 1.981 3.666 1.222 1.09 1.985-.03 3.58-1.083 2.631-1.74 7.69-6.401 10.548-4.723 1.559.915 6.247 6.335 5.387 8.47-.998 2.479-5.785.11-6.106 3.812-.226 2.624 4.376 6.285 6.761 4.626 2.151-1.496.443-9.017 4.65-4.297 2.907 3.263 4.549 4.963 4.392 9.296-.089 2.391-.166 4.775-.174 7.169-.006 1.413.857 5.892-.045 6.89-.851.943-3.828.069-4.967.075-2.136.008-4.234.448-6.346.691-5.075.584-6.253-1.363-3.306-5.322 1.882-2.53 3.013-5.027 0-7.297-2.781-2.09-6.963-1.792-9.083 1.054-.785 1.053-1.628 2.917-1.191 4.235.655 1.977 2.943 1.651 4.099 3.058 3.563 4.333-3.873 3.697-5.907 3.611-4.97-.215-10.097.598-15.037.042-5.813-.655-5.379-4.532-5.379-9.365l.415-.058-.006.003Z"/><path fill="#C999FE" d="M71.837 63.147c1.882 0 4.79-.197 4.79-.197s.575 7.131.83 7.742c0 0 10.849-5.615 12.99-6.635 2.535-1.206 7.757 3.113 9.675 4.147 4.542 2.45 8.732 5.342 13.29 7.758a365.126 365.126 0 0 1 6.233 3.398c1.443.802 4.55 1.457 5.354 2.945.785 1.452.23 4.969.222 6.567-.009 2.065.691 5.51-.141 7.407 0 0-5.952 4.916-7.267 2.892-.664-1.017 1.127-3.514.553-4.7-.868-1.786-3.328-1.27-5.042-.785-2.358.666-6.009 4.434-2.422 6.315 1.076.564 2.485-.08 3.091 1.559.442 1.197-3.442 3.644-4.171 4.313-4.724 4.355-26.561 1.59-26.561 1.59-3.04-2.488 1.595-3.531 1.935-5.806.53-3.561-4.965-4.499-7.463-3.318-4.55 2.151.829 5.53.553 7.465-.277 1.936-8.016 1.106-10.551-1.059-2.347-2.004-4.31-5.956-4.31-5.956s-.461-3.174-.483-5.062c-.03-2.729-.113-5.46-.207-8.187-.061-1.736.071-7.938.071-7.938s4.274-.76 4.227-5.284c-.022-2.032-.357-9.37-.357-9.37l5.16.21v-.014.003Z"/><path fill="#7342C1" d="m128.479 22.361.26.94c-4.784 2.564-9.694 5.293-14.108 8.14-.558.36-1.009 1.203-1.009 1.867v9.119c0 .503.487.865.968.716 2.067-.645 3.212-3.274 5.699-2.71 3.295 1.952 4.343 7.38 1.988 10.435-.915 1.189-2.538 1.532-4.42.838-.702-.26-1.385-.495-2.164-.36-.78.136-1.369.769-1.515 1.543-.169.899-.365 1.905-.395 2.917-.158 5.605-.039 11.488-.119 17.096-.009.558-.053.948-.036 1.529a.99.99 0 0 0 .475.813c1.83 1.108 3.679 2.289 5.603 3.331 1.498.813 4.566 2.456 6.12 3.174 0 0 .047 9.415.348 13.04 3.613-1.656 6.402-4.59 10.15-6.02a1.096 1.096 0 0 1 1.266.38c.65.876 1.219 1.653 1.811 2.413 1.227 1.573 2.545 3.083 3.703 4.706 1.507 2.11.609 3.893-1.995 4.131-.442.041-.89.036-1.327.108-2.106.345-3.01 2.311-1.598 3.876.962 1.067 2.281 1.933 3.605 2.527 1.561.7 2.827-.506 2.62-2.25-.047-.385-.124-.766-.144-1.151-.071-1.399.097-1.982 1.087-2.554a1.856 1.856 0 0 1 2.081.141c2.087 1.617 2.872 4.573 5.528 5.682-.107.188.064 1.05-.044 1.241-.453-.08-1.338-.672-1.614-.937-1.183-1.134-2.272-2.364-3.386-3.573-.39-.423-.766-.862-1.142-1.296-.257-.299-.741-.282-.951.049-.224.349-.309.824-.342 1.131-.045.421.19.863.235 1.305.24 2.364-1.675 4.081-3.995 3.545-2.175-.503-3.82-1.819-4.92-3.708-1.412-2.425.191-5.167 3.049-5.372.514-.036 1.028-.075 1.648-.119a.86.86 0 0 0 .79-.973c-.077-.575-.144-1.078-.409-1.43-1.518-2.024-3.148-3.965-4.851-6.047a.946.946 0 0 0-1.114-.268c-.39.172-.78.354-1.15.584-4.605 2.88-9.177 5.814-13.801 8.66-.713.439-1.515.906-2.568.644a1.264 1.264 0 0 1-.813-.675l-.32-.642c-.139-.392-.045-.984.099-1.376.473-1.272 1.034-2.48-.359-3.617-3.287-.669-5.788.647-6.631 3.473a1.854 1.854 0 0 0 1.614 2.38c.318.028.649.028.973.045.492.022.959.229 1.305.578.909.92.635 1.797-.2 3.105-2.33 2.328-4.541 3.434-7.523 4.833-.747.351-1.618.752-2.112-.473 4.812-2.135 7.792-4.101 8.682-5.679a.76.76 0 0 0-.683-1.128h-.008c-1.429.033-2.737-.249-3.267-1.745-.561-1.582-.246-3.169.887-4.358 1.617-1.695 3.563-2.754 6.084-2.433 2.482.316 3.593 2.057 2.687 4.338-.161.407-.241.918-.307 1.419a.556.556 0 0 0 .787.578c1.413-.67 4.086-2.14 5.581-3.008V82.55c-10.788-5.875-21.286-11.836-32.398-17.886-.487-.266-1.288-.277-1.78-.022-4.127 2.115-8.337 4.266-12.892 6.6a.817.817 0 0 1-1.186-.664l-.567-7.103h-8.527c.116 3.7.02 7.355-.017 10.642a2.491 2.491 0 0 1-1.089 2.035c-.854.584-1.597 1.092-2.266 1.546-.307.21-.49.556-.49.926 0 6.376-.038 12.561.048 18.743.01.86.527 1.817 1.064 2.544 1.197 1.629 2.44 3.266 3.908 4.64a5.489 5.489 0 0 0 2.82 1.413c1.835.315 3.748.105 5.627.072a.355.355 0 0 0 .127-.028c.363-.138.47-.606.238-.915-.232-.31-.461-.614-.694-.904-1.177-1.482-2.192-3.022-1.138-4.98.881-1.642 2.692-2.3 5.102-1.839 1.128.216 2.289.495 3.312.998 2.399 1.181 2.648 3.634.646 5.37l-1.097.951a1.607 1.607 0 0 0-.553 1.377c.116 1.073.611 1.38 1.725 1.344 3.602-.119 6.747-.116 10.349-.216.719-.019 3.668.039 4.196.149v.537c-.603.157-1.203.431-1.808.45-4.093.125-8.193.341-12.284.23-2.18-.058-3.129-.205-3.538-1.911a2.44 2.44 0 0 1 .559-2.189l2.01-2.251c.502-.564.5-1.413.002-1.98-.373-.423-.733-.785-1.158-.907-1.518-.434-3.154-.683-4.727-.622-1.578.064-2.325 2.044-1.451 3.498.511.851 1.2 1.595 1.741 2.433.763 1.181.266 2.519-1.116 2.607-2.206.141-4.456.222-6.64-.055-2.706-.346-4.248-2.546-5.677-4.562-2.176-3.072-4.105-6.318-6.148-9.481-.99-1.532-1.995-3.055-3.024-4.62-.285-.432-.868-.573-1.299-.288-1.255.832-1.81 2.284-2.695 3.404-2.162 2.729-3.955 5.389-6.142 8.096-.511.633-1.664 1.114-2.38 1.562-.937.373-1.766.097-1.744-.915-.124-1.308-.252-2.619-.373-3.932-.202-2.17-1.38-2.829-3.292-1.836-2.676 1.385-3.831 3.818-3.226 6.78.205 1.003.71 1.598 1.841 1.465a10.662 10.662 0 0 1 1.83-.069c1.918.102 2.369 1.648 2.134 3.356-1.125 2.561-3.359 3.822-5.653 5.373-.766-1.021-.19-1.001-.19-1.001 1.169-.926 2.816-2.265 3.87-3.318.828-.83 1.05-1.695.765-2.472-.124-.343-.213-.846-1.319-.846-1.105 0-2.136.279-3.04 0-2.137-1.103-2.33-6.536.365-8.845.71-.608 1.498-1.14 2.3-1.626 2.106-1.275 4.33-.307 4.798 2.12.21 1.093.113 2.65.218 4.143a.418.418 0 0 0 .617.337c.663-.36 1.368-.735 1.65-1.106 2.546-3.334 4.959-6.885 7.493-10.23.562-.738 1.076-1.665 2.074-1.98.76-.24 1.586.086 2.037.744 1.642 2.408 3.623 5.621 5.534 8.422 0-5.165-.014-14.027-.02-17.176 0-.716.373-1.38.987-1.753.76-.462 1.487-.901 2.184-1.324a1.9 1.9 0 0 0 .912-1.623V62.182H77.23c.154 2.24.315 4.526.489 7.062.02.296.329.48.6.36 1.277-.576 2.485-1.118 3.79-1.704 0-2.19.027-4.338-.006-6.49-.091-5.996-.194-11.994-.32-17.988-.034-1.504-.612-2.665-2.207-3.152-2.672-.816-3.408-1.289-4.884-1.922-.356-.152-.213-.381-.39-.865 2.394.166 4.509 1.07 6.667 1.9.73.279 1.543 1.105 1.778 1.85.879 2.78.48 5.518.522 8.366.078 5.27.271 16.12.266 17.37l6.697-3.463a2.987 2.987 0 0 1 2.85.061c6.366 3.622 12.745 7.048 19.205 10.723l.031-1.646c.091-6.268.085-12.536.293-18.801.099-3.011 2.233-4.908 5.24-3.476 2.483 1.181 4.376-.143 4.34-2.894-.017-1.258-.285-2.525-.558-3.76-.205-.916-.694-1.632-1.767-1.98-.4-.13-.84-.05-1.185.193-.426.296-.921.644-1.338 1.07-1.084 1.103-2.278 1.753-3.837 1.64a1.308 1.308 0 0 1-1.186-1.02 3.728 3.728 0 0 1-.105-.8c-.016-3.052.047-6.105.025-9.157-.008-1.346.495-2.447 1.581-3.122a304.282 304.282 0 0 1 9.108-5.41c1.755-1.01 3.58-1.894 5.371-2.84l.182.08-.003-.006Z"/><path fill="#8D98B9" d="M74.347 45.59v4.885H69.34V45.59h5.006Z"/><path fill="#9398BD" d="M142.093 74.918H137.2v-5h4.893v5ZM128.897 69.976h4.729v4.839h-4.729v-4.839Z"/><path fill="#8D98B9" d="M44.557 73.031v4.761h-4.765v-4.76h4.765Z"/><path fill="#9398BD" d="M74.294 112.385v4.711H69.46v-4.711h4.834ZM83.604 112.36v4.761h-4.766v-4.761h4.766Z"/><path fill="#9297BC" d="M125.356 70.065h-4.832v4.794h4.832v-4.794Z"/><path fill="#8FB39D" d="M32.022 77.853v-4.827h4.895v4.833c-1.63 0-3.264-.006-4.895-.009v.003Z"/><path fill="#96B8A3" d="M32.022 77.59c.089.09.177.175.268.263-.088-.088-.177-.174-.268-.262Z"/><path fill="#FEE880" d="M104.821 103.042c-4.718 0-8.812-.097-13.317-.097l.05-12.07c0-3.594 2.382-6.082 6.633-6.082 3.87 0 6.634 2.212 6.687 6.265l-.053 11.984ZM78.504 88.894V83.17h2.62v5.544c-.851.058-1.642.114-2.62.18ZM70.48 88.902V83.18h2.62v5.544l-2.62.18Z"/><path fill="#000" d="M118.335 2.114a1.749 1.749 0 0 1 2.576.492c1.261 2.137 1.714 4.344 2.187 6.523.928 4.29 1.76 8.601 2.642 12.99a.884.884 0 0 0 1.136.666c2.565-.824 4.868-2.445 7.516-2.923a1.878 1.878 0 0 1 1.852.733c2.045 2.79 4.011 5.466 5.968 8.145.622.852 1.114 1.822 1.846 2.558 1.006 1.006 1.194 2.15 1.178 3.478-.072 5.82-.116 11.643-.128 17.466-.008 3.835.053 7.67.089 11.505 0 .122.017.243.041.395a.8.8 0 0 0 .841.672c.964-.063 1.915-.135 2.869-.163 3.325-.097 6.653-.15 9.981-.251a1.635 1.635 0 0 1 1.692 1.523c.047.777.279 1.543.414 2.314.36 2.082.18 4.065-.862 5.97-.296.542-.451.973-.47 1.393-.05 1.062 1.28 1.593 2.01.816l.011-.011c2.581-2.773 5.171-1.535 6.88.406 2.435 2.77 2.841 7.88.594 10.698-1.197 1.501-2.933 2.25-4.832 1.816-.641-.146-1.28-.306-2.004-.486a1.049 1.049 0 0 0-1.252.702c-.166.528-.298.993-.285 1.471.105 3.55.321 7.1.492 10.65.056 1.159.141 2.32.133 3.482-.011 1.551-1.393 2.811-3.228 2.952-1.17.089-2.344.133-3.552.183a1.25 1.25 0 0 0-1.197 1.236v.011c-.022 3.492.005 6.984-.036 10.473a126.967 126.967 0 0 1-.243 6.47c-.089 1.386-.498 1.673-1.946 1.518-1.543-.166-3.085-.572-4.616-.536-1.927.044-3.845.44-5.769.672-.603.072-1.219.177-1.819.135-1.595-.107-3.041-.741-3.569-2.286-.563-1.656-.069-3.285 1.159-4.593.447-.478 1.086-.804 1.454-1.327 1.63-2.32.669-4.833-2.245-5.895-2.568-.937-5.512.083-6.791 2.378-.995 1.781-.719 3.05 1.119 3.91 1.985.929 2.651 2.574 2.659 4.581 0 .108-.027.224-.069.343-.193.531-.663.912-1.211 1.048-.718.177-1.835.423-2.501.426-6.54.044-13.08.08-19.62.058-2.681-.009-5.185-2.624-5.188-5.323-.003-2.441.097-4.885.08-7.327-.011-1.65-.149-3.298-.241-5.12h-6.31c0 1.733.008 3.544 0 5.355-.022 3.943-.11 7.886-.06 11.829.03 2.424-1.187 4.75-4.553 4.708a425.737 425.737 0 0 0-14.993.072c-3.87.089-7.734.376-11.601.567-2.228.111-4.44.055-6.579-.702-1.614-.57-2.288-2.483-1.821-4.17.348-1.255.765-1.883 1.373-3.047.473-.904 1.056-1.385.838-2.483-.362-1.819-2.112-2.248-3.372-2.566-.926-.232-1.999-.08-2.969.108-1.302.249-1.83.631-2.46 1.983a3.156 3.156 0 0 0 .127 2.925c.796 1.358 1.963 2.616 2.162 4.305.116 1.004-.484 1.988-1.465 2.229-.1.024-.197.038-.296.044-4.484.18-8.967.666-13.462.044-1.542-.213-2.656-1.034-3.645-2.076-.351-.371-.584-1.001-.597-1.518-.053-2.207.035-4.416.005-6.622-.033-2.348-.182-4.908-.268-7.374a.658.658 0 0 0-.705-.636c-.199.013-.392.038-.597.027-.44-.022-.887.116-1.324.092-3.878-.222-4.843-1.3-4.9-4.74-.098-5.756-.44-11.51-.584-17.27-.077-3.038.055-6.082.075-9.124.022-3.818-.092-7.642.077-11.452.119-2.71 1.935-5.613 5.263-4.993.602.113 1.274.18 1.921-.017.647-.196.849-.962.434-1.468l-.075-.091c-.45-.559-.942-1.093-1.335-1.687-2.02-3.058.28-6.611 3.942-6.73 1.208-.039 2.438.083 3.635.28 2.05.334 3.485 1.58 3.97 3.563.428 1.759-.396 3.213-1.8 4.36-.277.227-.506.515-.752.844a.844.844 0 0 0 .423 1.308c1.796.561 3.543-.133 5.34.088.06-.868.15-1.565.152-2.261.02-5.057.03-10.114.03-15.172 0-2.905.99-5.416 2.92-7.573.397-.445.754-.929 1.163-1.435-2.098-2.505-2.214-5.355-1.888-8.28.34-3.056 2.073-5.298 4.63-6.747 3.524-2 7.37-2.649 11.209-1.05 3.137 1.307 4.909 3.936 5.362 7.288.219 1.62.039 3.293.039 5.311 1.1.382 2.57.893 4.16 1.443.945-3.027 1.727-5.856 2.711-8.61 1.629-4.548 3.306-9.083 5.12-13.559 1.52-3.75 3.25-7.415 4.925-11.104.387-.852.868-1.681 1.413-2.441C89.88-.2 91.125-.352 91.844.778c1.114 1.753 1.65 2.724 2.747 5.74l.022.067c1.742 6.296 3.26 12.492 4.838 18.832.174.696.411 1.761.635 2.723.103.448.606.432.899.075.53-.65 6.808-12.276 10.061-17.35 1.542-2.408 4.376-6.453 7.303-8.746l-.014-.005Zm-42.186 36.94c-2.278-.88-4.368-1.687-6.338-2.445-1.43 1.698-3.088 2.804-4.746 3.633-1.896.949-5.432 1.264-7.463 1.106-1.996-.154-3.594-.83-4.976-1.659-1.913 1.858-3.414 4.272-3.425 7.245-.022 5.78-.132 11.562-.202 17.347-.008.763 0 1.526 0 2.48-2.08.047-3.952.116-5.824.127-2.252.011-2.755-.058-3.513-1.69a2.283 2.283 0 0 1 .351-2.45c.387-.444.8-.903 1.236-1.335.824-.81 1.235-1.733.915-2.84-.335-1.16-1.15-1.896-2.386-2.042-.934-.111-1.877-.155-2.816-.23-1.427-.11-2.543.36-3.353 1.52-.19.277-.28.615-.257.952.083 1.23.528 2.3 1.678 3.177 1.586 1.208 1.382 3.146-.346 4.114-.406.227-.954.238-1.44.271-.912.064-1.827.11-2.7.152a2.632 2.632 0 0 0-2.336 1.692c-.368.979-.431 1.872-.434 2.823-.003 2.555.102 5.107.1 7.662-.006 3.931-.15 7.866-.084 11.798.103 5.878.326 11.756.528 17.634.02.584.24 1.162.32 1.541 1.933 1.277 3.984.586 5.977.721a1.38 1.38 0 0 1 1.294 1.341c.11 4.966.215 9.816.317 14.361a2.34 2.34 0 0 0 .86 1.778c.713.567 1.495.691 2.289.794 3.795.492 7.568.149 11.358-.053.807-.044 1.335-.882 1.009-1.62-.219-.495-.625-1.09-1.465-2.325-1.482-2.174-.84-5.237 1.387-6.65 2.126-1.349 4.52-1.529 6.703-.639 3.176 1.294 5.321 4.136 2.303 7.554-.606.686-1.012 1.49-1.087 2.386-.085 1.001.586 1.9 1.548 2.179 2.073.603 4.218.528 6.38.365 2.543-.191 5.089-.451 7.635-.498 5.99-.11 11.982-.108 17.975-.16 1.597-.014 2.653-.813 2.678-2.066.094-4.653.163-9.309.224-13.965.02-1.438.008-2.879.005-4.427 0-.523.349-.99.855-1.12 2.797-.727 5.464-.492 8.201.047.412.08.721.421.765.838.086.83.175 1.565.183 2.3.044 3.553.041 7.106.069 10.656.019 2.376 1.131 3.562 3.557 3.625 2.488.064 4.981-.002 7.472-.016 4.271-.02 8.544-.039 12.814-.069a.953.953 0 0 0 .946-.971c-.025-1.067-.318-1.355-1.454-1.833-1.2-.506-2.018-1.316-2.463-2.538-.757-2.077.625-5.182 2.916-6.459 2.623-1.466 5.122-1.388 7.892-.028 2.645 1.303 4.011 5.287 1.628 8.021-.47.539-1.092.954-1.529 1.518-.613.794-1.18 1.681-.727 2.757.329.782 1.62 1.252 2.781 1.098.218-.031.431-.106.65-.15 3.234-.661 6.47-1.039 9.738-.191.11.028.229.081.365.136a.66.66 0 0 0 .895-.622c0-2.314-.014-4.734-.003-6.907.014-3.146.034-6.296.08-9.442.006-.354.025-.705.053-1.056a1.81 1.81 0 0 1 1.719-1.668l4.426-.218a1.784 1.784 0 0 0 1.647-1.371 3.96 3.96 0 0 0 .133-1.048c-.1-2.71-.371-5.414-.467-8.124-.075-2.096-.133-4.213.066-6.296.213-2.217 1.855-3.085 3.906-2.308 2.338.885 3.861.434 5.025-1.466 1.432-2.336.627-6.467-1.308-8.355-1.232-1.203-2.169-1.159-3.51-.025-.381.32-.655.849-1.084 1.017-.84.335-1.835.819-2.614.628-1.004-.246-1.651-1.205-1.745-2.403-.099-1.263.092-2.45.758-3.517 1.266-2.03.732-4.059.356-6.196a.922.922 0 0 0-.937-.766c-4.436.141-8.773.445-13.127.23a1.585 1.585 0 0 1-1.5-1.527c-.108-2.894-.246-5.643-.235-8.391.024-7.148.165-14.292.207-21.44.003-.677-.254-1.72-.6-2.303-.672-1.144-1.515-2.187-2.3-3.265-1.766-2.428-3.538-4.85-5.321-7.291a1.266 1.266 0 0 0-1.448-.448c-3.016 1.076-5.794 2.685-8.851 3.6a.588.588 0 0 1-.757-.498v-.005c-.644-6.252-2.032-12.362-3.519-18.45-.16-.656-.431-1.284-.721-1.947a.785.785 0 0 0-1.255-.266c-2.646 2.494-5.819 6.86-7.723 10.007-3.292 5.436-7.767 14.206-10.463 18.608a.66.66 0 0 1-1.19-.133c-.44-1.313-.742-2.815-.905-3.53-1.304-5.79-2.557-11.597-4.008-17.35-.73-2.89-1.429-5.514-2.8-8.511a3.377 3.377 0 0 0-.508-.772.56.56 0 0 0-.918.12v.005c-5.88 11.549-10.388 23.629-13.99 36.428l-.002-.009Zm-10.581-.767c.484-.257.749-.35.953-.517 2.107-1.694 2.49-3.99 2.513-6.552.036-4.394-3.878-8.417-8.45-7.676-.603.097-1.213.141-1.819.224-4.356.592-7.198 3.512-7.582 7.9-.257 2.933.617 5.482 3.035 7.293.76.57 1.725 1.004 2.83 1.004-.135-1.07-.436-2.096-.386-3.157.016-.371.52-.479.69-.15.512.982.89 2.364 1.256 3.429 2.161.138 4.052-.028 5.766-.951-.351-1.167-.691-2.212-.763-3.827-.017-.34.428-.478.616-.194.575.866 1.034 2.05 1.34 3.175Z"/><path fill="#000" d="M91.186 39.869c1.196-.144 1.664.901 1.75 1.791.071.747 0 1.383-.277 2.212 3.04-.553 6.244-.68 9.122.553 0-1.382 0-3.87 2.084-3.884 2.338.014 2.062 3.884.351 5.438.528 1.007 1.152 1.944 1.52 2.97.359 1 .453 2.096.663 3.15-.168.049-.334.099-.503.146-.152-.481-.32-.96-.456-1.446-1.078-3.86-3.659-5.823-8.118-6.197-1.647-.138-3.37.086-4.928.556-3.149.948-5.285 3.683-5.333 7.77-.03 2.85 2.264 5.632 5.504 6.788 4.038 1.44 7.728.948 11.051-1.842.227-.19.497-.332.978-.304-.149.307-.226.686-.456.91-1.733 1.686-3.67 2.947-6.208 3.06-3.463.152-6.64-.608-9.26-2.958-1.725-1.549-2.487-3.572-2.551-5.925-.091-3.351 1.258-5.895 4.072-7.786-.697-1.916-.852-4.593.995-5.002Z"/><path fill="#000" d="M95.017 53.229c-2.919.976-3.74.597-4.702-.404-.18-.185.014-.509.274-.509.094 0 .174.014.237.056 1.225.84 2.439.597 3.613-.036.702-.379 1.3-.354 2.02-.039 1.922.84 3.879 1.405 5.836.017l.169.025a.232.232 0 0 1 .176.329c-.732 1.553-3.12 1.772-6.274.591a2.017 2.017 0 0 0-1.35-.03ZM94.884 46.084c.777-.14 1.98-.218 3.05.155.483.169.696.75.436 1.192-.495.846-1.258 1.47-2.394 1.418-.84-.038-1.52-.826-1.755-1.772-.114-.456.199-.91.663-.993Z"/><path stroke="#000" stroke-linecap="round" stroke-linejoin="round" stroke-width=".785" d="M100.025 29.976c-1.268-1.048-1.047-2.654-1.5-4.009-.072-.218-.114-.445-.169-.666M97.936 23.128c-.752-3.23-1.598-6.44-2.228-9.691-.686-3.526-2.032-6.822-3.21-10.178-.146-.418-.433-.783-.657-1.173M89.837 1.585c-1.114 2.032-2.389 3.993-3.306 6.11-1.999 4.601-3.925 9.241-5.678 13.942-1.597 4.285-2.919 8.673-4.378 13.011-.348 1.04-.763 2.057-1.189 3.2-2.064-.838-3.941-1.602-5.818-2.362M143.607 53.021c.224.11.642.224.639.335-.017 2.004-.083 4.009-.138 6.01M144.108 59.533l.293 5.934c1.642.348 3.09.368 4.55.077M151.789 65.461h7.704c.743 3.011 1.324 5.87-.315 8.793-1.103 1.968-.738 2.82 1.133 4.288.575-.412 1.288-.774 1.813-1.322 2.408-2.505 4.547-1.68 6.33 1.037 1.393 2.124 1.697 4.551.846 6.987-.575 1.645-1.432 2.99-3.472 3.34-.981.169-1.689-.21-2.515-.348-.561-.094-1.092-.382-1.645-.589-1.235.672-1.763 1.568-1.722 2.947.08 2.558-.063 5.124.05 7.681.094 2.121.412 4.233.644 6.346.111 1.006-.835 2.309-2.01 2.483a32.138 32.138 0 0 1-4.171.332c-.887.016-1.575.21-2.004 1.025M52.432 38.827c.556.279 1.095.61 1.675.824 1.073.392 2.049 1.028 3.348.732.768-.174 1.656.219 2.493.274 3.98.268 6.656-2.085 9.158-4.692.36-.373.417-1.078.52-1.645.9-5.03-.495-9.67-6.179-11.497-.72-.232-1.553-.21-2.33-.18-3.706.15-6.996 1.203-9.362 4.322-1.42 1.872-1.642 3.97-1.404 6.185.102.952.13 1.944.448 2.826.36.993 1.006 1.883 1.6 2.947-2.175 2.163-4.04 4.51-4.143 7.756M48.176 49.181c-.028 4.844-.05 9.686-.089 14.53-.005.672-.094 1.346-.149 2.11-2.272.436-4.414.268-6.52.174-1.034-.047-1.385-1.087-1.33-2.262 1.282-1.535 3.524-2.696 2.902-5.544-1.31-2.519-3.795-2.748-6.415-2.66M104.534 119.485c.522.078.682-.152.677-.669-.022-2.115.003-4.23-.017-6.345-.005-.669-.102-1.336-.16-2.005M104.365 108.464c-2.059-.111-4.118-.238-6.178-.321-.387-.016-.78.15-1.335.266 0 .887.009 1.722 0 2.557-.052 4.065-.11 8.126-.163 12.191-.008.669 0 1.335 0 2.004M96.683 125.33l.114 2.267c-1.344 2.439-2.004 2.729-4.96 2.431-.93-.094-1.89.132-2.835.135-4.953.017-9.91-.063-14.86.039-2.397.047-4.785.495-7.181.614-2.355.116-4.735.177-7.01-.65-.76-.277-1.086-.866-1.18-1.665-.169-1.426.182-2.687 1.008-3.846.385-.539.813-1.072 1.073-1.675.614-1.416.21-2.63-.89-3.678-2.156-2.054-4.732-1.808-7.168-1.078-1.66.498-2.51 2.262-2.606 3.935-.053.918.768 1.905 1.255 2.828.58 1.101 1.224 2.165 1.935 3.404-.572.442-.984 1.02-1.446 1.067-1.882.188-3.781.21-5.672.293M119.394 2.587c-.669.5-1.438.91-1.988 1.518-3.25 3.589-6.119 7.468-8.535 11.673-.771 1.341-1.556 2.674-2.336 4.01M106.369 19.956c-1.78 3.229-3.563 6.456-5.343 9.685M143.608 51.017c.224-.166.597-.304.638-.506.094-.48.031-.995.031-1.495 0-4.341-.161-8.694.066-13.023.116-2.226-.749-3.874-1.913-5.508-2.081-2.92-4.215-5.8-6.341-8.688-.29-.392-.663-.724-1.172-1.271-1.15.398-2.446.743-3.654 1.288-1.758.79-3.472 1.665-5.346 2.176-.406.11-.729.531-1.092.81M91.006 44.838c-1.42 1.155-2.81 2.339-3.676 4.006-.15.288-.404.54-.487.84-1.415 5.135 1.698 9.99 7.002 11.03 2.665.522 5.285.603 7.665-.874 1.056-.655 1.91-1.64 2.858-2.475M151.958 108.464c.224.166.644.343.636.5-.058 1.449-.216 2.895-.291 4.344-.025.498.094 1.001.155 1.501.047.39.205.794.149 1.167-.221 1.51-.177 2.984-.066 4.518.155 2.148-.26 4.335-.445 6.694-1.429-.116-2.93-.028-4.301-.404-1.916-.525-3.693-.185-5.525.21-.993.213-1.996.415-3.005.493-1.39.105-2.366-.678-2.988-1.828-.608-1.125.055-2.168.517-3.149.199-.423.741-.692 1.139-1.015 1.608-1.322 1.998-3.135 1.595-4.996-.188-.871-1.001-1.817-1.792-2.312-3.369-2.115-6.642-1.554-9.124 1.322-.556.644-.84 1.615-1.003 2.483-.28 1.482.24 2.4 1.816 3.144 1.478.699 2.344 1.75 2.476 3.364.031.382-.146.777-.262 1.336-1.557 0-3.06-.039-4.561.008-2.507.08-5.009.263-7.516.31-1.78.03-3.563-.111-5.343-.144-.835-.014-1.669.047-2.504.078M26.966 73.228c-.027 3.174-.044 6.345-.088 9.52-.02 1.252-.21 2.51-.13 3.754.072 1.15-.022 2.292.014 3.423.097 3.066.48 6.121.6 9.188.11 2.834.005 5.676.039 8.516.008.614.326 1.23.293 1.836-.061 1.039.61 1.313 1.365 1.493 1.263.298 2.488.882 3.859.218.428-.207 1.094.069 1.824.141.1.404.299.86.312 1.319.083 3.227.136 6.456.177 9.686.022 1.725.003 3.45.003 4.871 1.752 2.353 3.997 2.583 6.346 2.566 1.28-.008 2.563.033 3.84.086.517.022.746-.152.669-.675M91.675 43.836c.732.445 1.465.534 2.344.362 2.47-.48 4.972-.373 7.314.545.622.243 1.13.207 1.697.263M103.196 45.672c1.025 1.598 2.272 3.08 2.67 5.01.116.556.224 1.114.334 1.67M105.117 119.654c0 .669-.014 1.335 0 2.004.069 2.967 2.772 5.085 6.255 4.405.091-.017.116-.368.171-.562M32.73 66.048c-.813-1.045-1.91-.15-2.844-.401-.25-.067-.55.055-1.004.116-1.675 1.205-1.868 3.157-1.99 5.129-.041.666.008 1.335-.028 2.002-.002.063-.312.113-.478.168"/><path stroke="#000" stroke-linecap="round" stroke-linejoin="round" stroke-width=".785" d="M102.195 52.853c-1.741 1.286-3.571.805-5.332.138-1.006-.378-1.893-.489-2.852.025-1.23.661-2.405.523-3.505-.329M144.191 51.183l-.083 1.836M91.006 43.167l-.5-.083M96.6 46.676c.029.166.056.335.084.501"/></svg>