<!-- This Source Code Form is subject to the terms of the Mozilla Public
   - License, v. 2.0. If a copy of the MPL was not distributed with this
   - file, You can obtain one at http://mozilla.org/MPL/2.0/. -->
<svg width="16" height="16" fill="context-fill" fill-opacity="context-fill-opacity" xmlns="http://www.w3.org/2000/svg"><path fill-rule="evenodd" clip-rule="evenodd" d="M5.287 10.502c.004-.173.034-.34.075-.502H1.604c-.057 0-.104-.043-.104-.097V5.101l4.03 3.234a.753.753 0 0 0 .94 0l4.03-3.234v3.822c.264.158.516.338.749.547.233-.21.486-.39.751-.548V4.097c0-.881-.72-1.597-1.604-1.597H1.604C.72 2.5 0 3.216 0 4.097v5.807c0 .88.72 1.596 1.604 1.596h3.659a6.301 6.301 0 0 1 .024-.998zM6 6.788 2.525 4h6.95L6 6.788z"/><path fill-rule="evenodd" clip-rule="evenodd" d="M15.205 9.59c.46.104.778.53.754 1.006.124.477-.064 2.202-.166 2.475-.206 1.101-1.094 1.93-2.158 1.93a2.06 2.06 0 0 1-1.308-.483v.002l-.348-.292a1.146 1.146 0 0 0-1.491.012l-.232.201c-.38.344-.861.56-1.393.56-1.065 0-1.952-.829-2.16-1.929-.102-.273-.283-2.006-.166-2.475v-.003a.982.982 0 0 1 .755-1.004 3.494 3.494 0 0 1 3.186.87l.143.135a.915.915 0 0 0 1.255 0l.146-.138a3.494 3.494 0 0 1 3.183-.868zM9.97 11.693c.081.06.154.127.219.201a.43.43 0 0 1 0 .554c-.093.107-.204.2-.33.276-.22.132-.485.209-.769.209-.446 0-.843-.19-1.099-.485a.432.432 0 0 1 0-.554 1.451 1.451 0 0 1 1.099-.485c.334 0 .64.106.88.284zm4.505.751a1.44 1.44 0 0 1-1.088.477c-.442 0-.834-.187-1.088-.477a.42.42 0 0 1 0-.544 1.44 1.44 0 0 1 1.088-.477c.442 0 .834.187 1.088.477a.42.42 0 0 1 0 .544z"/></svg>