<!-- This Source Code Form is subject to the terms of the Mozilla Public
   - License, v. 2.0. If a copy of the MPL was not distributed with this
   - file, You can obtain one at http://mozilla.org/MPL/2.0/. -->
<svg xmlns="http://www.w3.org/2000/svg" viewBox="0 0 16 16" width="16" height="16" fill="context-fill" fill-opacity="context-fill-opacity">
  <path fill-rule="evenodd" clip-rule="evenodd" d="M13.056 11.994l.005.006L16 14.94 14.94 16l-2.5-2.5H0V12h3c-1.103 0-2-.897-2-2V4c0-.536.212-1.023.557-1.383L0 1.061 1.06 0l11.996 11.994zM2.619 3.68A.495.495 0 0 0 2.5 4v6a.5.5 0 0 0 .5.5h6.44L2.62 3.68z"/>
  <path d="M16 13.17 14.83 12H16v1.17zM13 2c1.103 0 2 .897 2 2v6c0 .595-.266 1.124-.68 1.491l-1.068-1.07A.495.495 0 0 0 13.5 10V4a.5.5 0 0 0-.5-.5H6.33L4.83 2H13z"/>
</svg>
