<!-- This Source Code Form is subject to the terms of the Mozilla Public
   - License, v. 2.0. If a copy of the MPL was not distributed with this
   - file, You can obtain one at http://mozilla.org/MPL/2.0/. -->
<svg xmlns="http://www.w3.org/2000/svg" width="16" height="16" fill="context-fill" fill-opacity="context-fill-opacity">
  <path fill-rule="evenodd" clip-rule="evenodd" d="M0 12h3a2 2 0 0 1-2-2V4a2 2 0 0 1 2-2h10a2 2 0 0 1 2 2v6a2 2 0 0 1-2 2h3v1.5H0V12zm3-8.5a.5.5 0 0 0-.5.5v6a.5.5 0 0 0 .5.5h10a.5.5 0 0 0 .5-.5V4a.5.5 0 0 0-.5-.5H3z"/>
</svg>
