<!-- This Source Code Form is subject to the terms of the Mozilla Public
   - License, v. 2.0. If a copy of the MPL was not distributed with this
   - file, You can obtain one at https://mozilla.org/MPL/2.0/. -->
<svg xmlns="http://www.w3.org/2000/svg" width="48" height="48" fill="none"><rect width="19.2" height="19.2" x="25.8" y="3" fill="context-stroke" rx="9.6"/><path fill="url(#a)" fill-rule="evenodd" d="M23.097 15.33h-6.413C18.194 10.32 20.936 6.9 24 6.9l.159.003a12.658 12.658 0 0 1 4.822-5.147A22.82 22.82 0 0 0 24 1.2 22.8 22.8 0 1 0 46.8 24a22.82 22.82 0 0 0-.556-4.98 12.657 12.657 0 0 1-5.146 4.82l.001.16a16.992 16.992 0 0 1-.955 5.58h-5.19a35.14 35.14 0 0 0 .425-4.38 12.635 12.635 0 0 1-2.842-.326 31.67 31.67 0 0 1-.484 4.706H15.946a31.589 31.589 0 0 1 0-11.16h8.276c-.503-.964-.885-2-1.125-3.09Zm-6.413 17.34c1.51 5.01 4.252 8.43 7.316 8.43s5.806-3.42 7.319-8.43H16.684Zm-8.83-14.25A16.995 16.995 0 0 0 6.9 24c.004 1.9.327 3.787.955 5.58h5.19a35.23 35.23 0 0 1 0-11.16h-5.19Zm5.855-3.09c.607-2.41 1.62-4.7 2.995-6.771a17.186 17.186 0 0 0-7.418 6.771h4.423Zm0 17.34H9.286a17.185 17.185 0 0 0 7.418 6.771 21.942 21.942 0 0 1-2.995-6.771Zm17.6 6.765a17.186 17.186 0 0 0 7.414-6.765H34.3a21.944 21.944 0 0 1-2.991 6.765Z" clip-rule="evenodd"/><path fill="context-fill" fill-rule="evenodd" d="m35.4 16.813-.067-.008a3.746 3.746 0 0 1-2.408-1.456 5.556 5.556 0 0 1-1.08-3.171c-.045-.504-.045-1.609-.045-2.224-.002-.539.385-1 .916-1.093L35.4 8.4l2.682.46c.532.093.92.555.918 1.095 0 .613 0 1.72-.048 2.223a5.556 5.556 0 0 1-1.08 3.171 3.746 3.746 0 0 1-2.407 1.456l-.065.008ZM33 10.029c0 .37-.004.698-.008.98-.006.461-.01.8.008 1 .016.948.328 1.867.892 2.63.369.493.905.835 1.508.962a2.532 2.532 0 0 0 1.507-.963 4.543 4.543 0 0 0 .893-2.629c.018-.2.014-.539.008-1-.004-.282-.008-.61-.008-.98l-2.4-.411-2.4.411Zm.9.759 1.5-.257v4.14h-.005a1.611 1.611 0 0 1-.78-.565 3.459 3.459 0 0 1-.678-2.118c-.02-.207-.032-.635-.037-1.2Z" clip-rule="evenodd"/><defs><radialGradient id="a" cx="0" cy="0" r="1" gradientTransform="rotate(-45 24.849 -55.893) scale(64.4881)" gradientUnits="userSpaceOnUse"><stop stop-color="#B833E1"/><stop offset=".371" stop-color="#9059FF"/><stop offset=".614" stop-color="#5B6DF8"/><stop offset="1" stop-color="#0090ED"/></radialGradient></defs></svg>