<!-- This Source Code Form is subject to the terms of the Mozilla Public
   - License, v. 2.0. If a copy of the MPL was not distributed with this
   - file, You can obtain one at https://mozilla.org/MPL/2.0/. -->
<svg xmlns="http://www.w3.org/2000/svg" width="48" height="48" fill="none">
<style>
   path.globe {
      fill: #5b5b66;
   }

   @media (prefers-color-scheme: dark) {
      path.globe {
         fill: #8f8f9d;
      }
   }
</style>
<rect width="19.2" height="19.2" x="25.8" y="3" rx="9.6" fill="context-stroke"/><path class="globe" d="M24 1.2c1.69.002 3.36.19 4.984.556a12.654 12.654 0 0 0-4.823 5.15c-.054-.003-.108-.006-.162-.006-3.063 0-5.804 3.42-7.315 8.43h6.413c.24 1.09.625 2.126 1.128 3.09h-8.28a31.589 31.589 0 0 0 0 11.16h16.11c.278-1.555.438-3.128.482-4.707.913.212 1.864.325 2.841.326-.05 1.467-.19 2.93-.422 4.381h5.189c.628-1.793.951-3.68.955-5.58 0-.054-.003-.108-.004-.162a12.651 12.651 0 0 0 5.147-4.821c.365 1.623.555 3.293.557 4.983a22.801 22.801 0 1 1-43.865-8.725A22.802 22.802 0 0 1 23.999 1.2Zm-7.316 31.47c1.51 5.01 4.252 8.43 7.316 8.43 3.063 0 5.805-3.42 7.319-8.43H16.684Zm-7.398 0a17.185 17.185 0 0 0 7.418 6.771 21.944 21.944 0 0 1-2.995-6.771H9.286Zm25.014 0a21.945 21.945 0 0 1-2.993 6.765 17.184 17.184 0 0 0 7.416-6.765H34.3ZM7.855 18.42A16.995 16.995 0 0 0 6.9 24c.004 1.9.327 3.787.955 5.58h5.19a35.228 35.228 0 0 1 0-11.16h-5.19Zm8.849-9.861a17.186 17.186 0 0 0-7.418 6.771h4.423c.607-2.41 1.62-4.7 2.995-6.771Z"/><path fill="context-fill" fill-rule="evenodd" d="M39.432 8.585a.6.6 0 0 0-.849 0l-.322.322a1.084 1.084 0 0 0-.171-.046L35.407 8.4l-2.683.46c-.531.094-.918.555-.917 1.094 0 .615 0 1.72.048 2.223a6.12 6.12 0 0 0 .648 2.488l-1.12 1.12a.6.6 0 1 0 .849.848l7.2-7.2a.6.6 0 0 0 0-.848Zm-2.517 6.053a2.533 2.533 0 0 1-1.508.963 2.56 2.56 0 0 1-.846-.347l-.861.862a3.732 3.732 0 0 0 1.64.69l.067.006.068-.007a3.746 3.746 0 0 0 2.407-1.456 5.557 5.557 0 0 0 1.08-3.171c.026-.311.038-.853.045-1.37l-1.2 1.2a4.544 4.544 0 0 1-.892 2.63ZM33 11.01c-.006.46-.01.799.008 1 .036.604.167 1.199.39 1.761l3.84-3.84-1.83-.313-2.4.412c0 .37-.004.698-.008.98Z" clip-rule="evenodd"/></svg>