<!-- This Source Code Form is subject to the terms of the Mozilla Public
   - License, v. 2.0. If a copy of the MPL was not distributed with this
   - file, You can obtain one at https://mozilla.org/MPL/2.0/. -->
<svg xmlns="http://www.w3.org/2000/svg" width="48" height="49" fill="none"><rect width="19.2" height="19.2" x="25.8" y="3.5" fill="#0062FA" rx="9.6"/><path fill="url(#a)" d="M24 1.7c1.69.002 3.36.19 4.984.556a12.654 12.654 0 0 0-4.823 5.15c-.054-.003-.108-.006-.162-.006-3.063 0-5.804 3.42-7.315 8.43h6.413c.241 1.09.625 2.126 1.128 3.09h-8.28a31.589 31.589 0 0 0 0 11.16h16.11c.278-1.555.438-3.128.482-4.707.913.212 1.864.325 2.841.326-.05 1.467-.19 2.93-.422 4.381h5.189c.628-1.793.951-3.68.955-5.58 0-.054-.003-.108-.004-.162a12.652 12.652 0 0 0 5.147-4.821c.365 1.623.555 3.293.557 4.983a22.801 22.801 0 1 1-43.865-8.725A22.802 22.802 0 0 1 24 1.7Zm-7.316 31.47c1.51 5.01 4.252 8.43 7.316 8.43 3.063 0 5.805-3.42 7.319-8.43H16.684Zm-7.398 0a17.185 17.185 0 0 0 7.418 6.771 21.947 21.947 0 0 1-2.995-6.771H9.286Zm25.014 0a21.945 21.945 0 0 1-2.993 6.765 17.184 17.184 0 0 0 7.416-6.765H34.3ZM7.855 18.92A16.995 16.995 0 0 0 6.9 24.5c.004 1.9.327 3.787.955 5.58h5.19a35.23 35.23 0 0 1 0-11.16h-5.19Zm8.849-9.861a17.186 17.186 0 0 0-7.418 6.771h4.423c.607-2.41 1.62-4.7 2.995-6.771Z"/><path fill="#fff" d="M38.082 9.36c.532.093.92.555.918 1.095 0 .613 0 1.719-.048 2.222a5.557 5.557 0 0 1-1.08 3.172 3.747 3.747 0 0 1-2.407 1.456l-.065.008-.067-.008a3.747 3.747 0 0 1-2.407-1.456 5.557 5.557 0 0 1-1.08-3.172c-.046-.503-.046-1.608-.046-2.223-.001-.539.385-1 .916-1.093L35.4 8.9l2.682.46ZM33 10.53c0 .37-.004.698-.008.98a21.66 21.66 0 0 0-.002.823l.03.53c.078.822.378 1.61.872 2.276.368.494.905.836 1.508.963a2.534 2.534 0 0 0 1.507-.963 4.545 4.545 0 0 0 .874-2.275l.029-.53a21.66 21.66 0 0 0-.002-.824c-.004-.282-.008-.61-.008-.98l-2.4-.411-2.4.41Zm2.4 4.642h-.005a1.611 1.611 0 0 1-.78-.565 3.46 3.46 0 0 1-.678-2.118c-.02-.207-.032-.635-.037-1.2l1.5-.257v4.14Z"/><defs><radialGradient id="a" cx="0" cy="0" r="1" gradientTransform="rotate(-45 25.452 -55.643) scale(64.4884)" gradientUnits="userSpaceOnUse"><stop stop-color="#B833E1"/><stop offset=".371" stop-color="#9059FF"/><stop offset=".614" stop-color="#5B6DF8"/><stop offset="1" stop-color="#0090ED"/></radialGradient></defs></svg>