<!-- This Source Code Form is subject to the terms of the Mozilla Public
   - License, v. 2.0. If a copy of the MPL was not distributed with this
   - file, You can obtain one at http://mozilla.org/MPL/2.0/. -->
<svg xmlns="http://www.w3.org/2000/svg" width="368" height="150" fill="none" viewBox="0 0 368 150"><rect width="368" height="150" fill="#623ac3" rx="4"/><path fill="#fff" stroke="#000" stroke-width=".75" d="M141.831 27.539h-29.833c-1.656 0-2.998 1.254-2.998 2.802V72.38c0 1.547 1.342 2.802 2.998 2.802h29.833c1.656 0 2.998-1.254 2.998-2.802V30.34c0-1.548-1.342-2.802-2.998-2.802Z"/><path fill="#000" d="M133.776 41.923a2.8 2.8 0 0 0-1.037-1.23 2.84 2.84 0 0 0-1.556-.46 2.83 2.83 0 0 0-1.323.32 2.8 2.8 0 0 0-1.012.897 2.7 2.7 0 0 0-.371.803h-3.955a2 2 0 0 0-.114-.33 1.7 1.7 0 0 0-.156-.3l1.414-1.39h.004c.427.24.91.365 1.402.364.376 0 .748-.074 1.093-.22a2.8 2.8 0 0 0 1.253-1.02 2.73 2.73 0 0 0-.356-3.489 2.84 2.84 0 0 0-1.99-.81c-.37 0-.736.07-1.078.21a2.8 2.8 0 0 0-.913.599 2.742 2.742 0 0 0-.602 3.039q.057.132.129.258l-1.433 1.41a2.85 2.85 0 0 0-1.359-.342 2.8 2.8 0 0 0-1.323.32A2.77 2.77 0 0 0 119 43c-.001.371.075.739.223 1.08a2.8 2.8 0 0 0 1.019 1.219c.464.31 1.013.474 1.574.473.46-.001.913-.113 1.32-.326a2.8 2.8 0 0 0 1.011-.897 2.5 2.5 0 0 0 .375-.8h3.952q.046.17.118.331.057.133.128.258l-1.433 1.41a2.84 2.84 0 0 0-1.359-.342c-.376 0-.749.074-1.097.216-.51.212-.945.567-1.25 1.02a2.73 2.73 0 0 0-.246 2.612c.214.494.568.917 1.019 1.218a2.85 2.85 0 0 0 3.985-.873c.264-.43.403-.923.405-1.425a2.75 2.75 0 0 0-.375-1.38l1.41-1.388h.004c.426.241.91.367 1.401.366a2.84 2.84 0 0 0 1.99-.813c.528-.52.825-1.224.826-1.959a2.7 2.7 0 0 0-.224-1.076m-7.9-4.593a1.3 1.3 0 0 1 1.07-.774 1.31 1.31 0 0 1 1.208.564c.141.209.216.455.215.706a1.27 1.27 0 0 1-.38.903 1.31 1.31 0 0 1-1.527.227 1.263 1.263 0 0 1-.68-1.006 1.27 1.27 0 0 1 .094-.62M123.01 43.5a1.3 1.3 0 0 1-1.197.78 1.293 1.293 0 0 1-1.078-.565 1.278 1.278 0 0 1-.117-1.21c.098-.228.261-.423.47-.562a1.313 1.313 0 0 1 1.807.351c.141.21.216.455.215.706.002.172-.032.343-.1.502zm4.112 5.173a1.3 1.3 0 0 1-1.197.78c-.173 0-.344-.034-.503-.099a1.33 1.33 0 0 1-.575-.465 1.266 1.266 0 0 1 .41-1.808 1.32 1.32 0 0 1 1.172-.083c.235.097.436.26.577.47s.216.455.216.706a1.3 1.3 0 0 1-.1.501zm5.256-5.173a1.3 1.3 0 0 1-1.196.78c-.213 0-.423-.051-.611-.15a1.263 1.263 0 0 1-.585-1.626 1.3 1.3 0 0 1 1.07-.773c.215-.021.431.01.63.093.235.097.436.261.577.47a1.26 1.26 0 0 1 .115 1.208z"/><path fill="#8adf8d" stroke="#000" stroke-miterlimit="10" stroke-width=".75" d="m131.908 68.072-10.88-.063c-1.342-.008-2.626-.499-3.569-1.365s-1.467-2.036-1.459-3.253.55-2.381 1.505-3.236 2.245-1.331 3.587-1.323l10.88.062c1.342.008 2.626.499 3.569 1.365s1.467 2.036 1.459 3.253-.55 2.381-1.505 3.236-2.245 1.331-3.587 1.323Z"/><path fill="#fff" stroke="#000" stroke-miterlimit="10" stroke-width=".75" d="M135.727 66.477a4.346 4.346 0 1 0-6.147-6.147 4.346 4.346 0 0 0 6.147 6.147Z"/><path fill="#fff" d="M241.408 107.67a2.63 2.63 0 0 0 1.803-.705 2.34 2.34 0 0 0 .747-1.702V61.126a2.34 2.34 0 0 0-.747-1.701 2.63 2.63 0 0 0-1.803-.705h-77.873c-.677 0-1.325.253-1.804.705a2.34 2.34 0 0 0-.747 1.701v44.137c0 .638.269 1.251.747 1.702a2.63 2.63 0 0 0 1.804.705"/><path fill="#000" d="M241.411 107.781c.793 0 1.554-.297 2.115-.826a2.75 2.75 0 0 0 .878-1.994V60.41h-.446v.414h.442c0-.75-.315-1.467-.876-1.997a3.1 3.1 0 0 0-2.116-.827h-77.87c-.793 0-1.555.297-2.116.827a2.75 2.75 0 0 0-.876 1.997v44.137c0 .37.077.737.228 1.08.15.342.37.653.648.915s.608.47.971.611.752.215 1.145.214v-.831c-.559 0-1.096-.21-1.492-.582a1.94 1.94 0 0 1-.619-1.407V60.824a1.94 1.94 0 0 1 .62-1.407 2.19 2.19 0 0 1 1.491-.586h77.87a2.19 2.19 0 0 1 1.491.586c.396.373.619.879.62 1.407v44.137a1.94 1.94 0 0 1-.619 1.407 2.18 2.18 0 0 1-1.492.582v.831z"/><path fill="#fff" d="M146.383 118.835v1.517c.001.45.19.88.527 1.198s.793.496 1.269.497h108.586c.476-.001.932-.18 1.268-.497a1.65 1.65 0 0 0 .525-1.198v-1.517"/><path fill="#000" d="M145.944 118.835v1.517c0 .56.235 1.096.655 1.492.419.395.987.617 1.58.617h108.586c.593 0 1.161-.222 1.58-.617.42-.396.655-.932.655-1.492v-1.517h-.881v1.517c-.004.338-.148.66-.401.899a1.4 1.4 0 0 1-.953.379H148.179c-.361 0-.707-.134-.964-.373a1.26 1.26 0 0 1-.407-.905v-1.517z"/><path fill="#fff" d="M257.185 119.928c.282 0 .557-.083.787-.236.23-.154.405-.37.5-.621.095-.25.106-.522.032-.778a1.3 1.3 0 0 0-.448-.655l-13.711-10.673a1.42 1.42 0 0 0-.871-.295h-82a1.42 1.42 0 0 0-.871.295l-13.711 10.673c-.217.17-.373.399-.448.655-.074.256-.063.528.032.778.095.251.27.467.5.621s.505.236.787.236z"/><path fill="#000" d="M257.236 119.928v.418c.257.001.512-.05.747-.149.325-.136.599-.361.785-.647.183-.277.281-.596.281-.922 0-.241-.055-.479-.161-.699a1.75 1.75 0 0 0-.5-.608l-13.712-10.673a1.9 1.9 0 0 0-1.151-.392h-82c-.421.001-.828.14-1.152.392l-13.711 10.673a1.74 1.74 0 0 0-.501.608c-.106.22-.161.458-.161.699 0 .439.175.861.49 1.184.17.171.375.307.602.399.228.092.473.139.721.138h109.423v-.831H147.807a1 1 0 0 1-.388-.075.9.9 0 0 1-.397-.323.9.9 0 0 1-.148-.485.86.86 0 0 1 .34-.676l13.711-10.674a.95.95 0 0 1 .589-.201h82.004a.97.97 0 0 1 .589.201l13.712 10.674a.87.87 0 0 1 .342.676.88.88 0 0 1-.257.617.8.8 0 0 1-.288.198 1 1 0 0 1-.387.074z"/><path fill="#fff" d="M202.547 115.274h38.57l-6.277-6.63h-64.738l-6.276 6.63h38.721M239.433 60.803h-73.976v43.105h73.976z"/><path stroke="#000" stroke-width=".5" d="M165.25 61.25h74.5v42.5h-74.5zM236.125 109.25l5.368 7h-78.959l5.857-7z"/><circle cx="202.5" cy="82.5" r="10.125" fill="#8adf8d" stroke="#000" stroke-width=".75"/><path fill="#000" d="M201.242 86.16a.53.53 0 0 1-.415-.166l-2.155-2.036a.586.586 0 1 1 .829-.83l1.707 1.665 4.27-4.56a.586.586 0 0 1 1.023.363.59.59 0 0 1-.151.424l-4.685 4.974a.55.55 0 0 1-.414.166z"/></svg>