<!-- This Source Code Form is subject to the terms of the Mozilla Public
     - License, v. 2.0. If a copy of the MPL was not distributed with this
     - file, You can obtain one at http://mozilla.org/MPL/2.0/. -->
<svg xmlns="http://www.w3.org/2000/svg" width="99" height="87" viewBox="0 0 99 87">
  <style>
    :root {
      color-scheme: light dark;
    }
    #row-icon-bg {
      fill: context-fill light-dark(#DDCFFF, #4E2E9D);
    }
    #row-bg {
      fill: light-dark(#FFF, #23222B);
    }
    .row-icon-glyph {
      fill: #7844F0;
    }
    #row-inset-hbox-1 {
      fill: url(#grad1);
    }
    #row-inset-hbox-2 {
      fill: url(#grad2);
    }
    @media (prefers-contrast) {
      #row-inset-hbox-1,
      #row-inset-hbox-2 {
        fill: context-fill;
      }
    }
    .gradient-stop-1 {
      stop-color: light-dark(#DDCFFF, #4E2E9D);
    }
    .gradient-stop-2 {
      stop-color: light-dark(#F4F0FF, #23222B);
    }
  </style>
  <path id="row-bg" d="M8.45703 28.4971C8.45703 21.3174 14.2773 15.4971 21.457 15.4971H106.457V71.4971H21.457C14.2773 71.4971 8.45703 65.6768 8.45703 58.4971V28.4971Z"/>
  <path id="row-icon-bg" d="M15.457 28.4971C15.457 25.1834 18.1433 22.4971 21.457 22.4971H52.457C55.7707 22.4971 58.457 25.1834 58.457 28.4971V58.4971C58.457 61.8108 55.7707 64.4971 52.457 64.4971H21.457C18.1433 64.4971 15.457 61.8108 15.457 58.4971V28.4971Z"/>
  <rect id="row-inset-hbox-1" x="65.457" y="26.5336" width="167.97" height="17.234" rx="8.61698"/>
  <rect id="row-inset-hbox-2" x="65.4569" y="51.8436" width="167.97" height="8.61698" rx="4.30849"/>
  <path class="row-icon-glyph" d="M43.5285 42.6594C43.5285 39.3075 40.7453 36.5794 37.3233 36.5794C33.9013 36.5794 31.1181 39.3075 31.1181 42.6594C31.1181 44.4001 33.23 47.4887 36.7686 50.9215C36.8356 50.9866 36.9133 51.0396 36.9985 51.078H37.6481C37.7333 51.0396 37.811 50.9866 37.878 50.9215C41.4166 47.4887 43.5285 44.4001 43.5285 42.6594ZM29.7692 42.6594C29.7692 38.5564 33.1513 35.2305 37.3233 35.2305C41.4953 35.2305 44.8774 38.5564 44.8774 42.6594C44.8774 45.5926 41.0194 49.7538 38.8179 51.8895C38.418 52.2791 37.8817 52.4971 37.3233 52.4971C36.7649 52.4971 36.2286 52.2791 35.8287 51.8895C33.6272 49.7538 29.7692 45.5915 29.7692 42.6594ZM39.2118 42.7846C39.2118 41.7432 38.3647 40.8961 37.3233 40.8961C36.2819 40.8961 35.4348 41.7432 35.4348 42.7846C35.4348 43.826 36.2819 44.6731 37.3233 44.6731C38.3647 44.6731 39.2118 43.826 39.2118 42.7846ZM36.0844 39.7936C36.4772 39.6309 36.8982 39.5471 37.3233 39.5471C38.1819 39.5471 39.0054 39.8882 39.6126 40.4954C40.2197 41.1025 40.5608 41.926 40.5608 42.7846C40.5608 43.6432 40.2197 44.4667 39.6126 45.0739C39.0054 45.681 38.1819 46.0221 37.3233 46.0221C36.8982 46.0221 36.4772 45.9384 36.0844 45.7757C35.6916 45.613 35.3347 45.3745 35.0341 45.0739C34.7334 44.7732 34.495 44.4163 34.3323 44.0235C34.1696 43.6307 34.0858 43.2098 34.0858 42.7846C34.0858 42.3595 34.1696 41.9385 34.3323 41.5457C34.495 41.1529 34.7334 40.796 35.0341 40.4954C35.3347 40.1947 35.6916 39.9563 36.0844 39.7936Z"/>
  <path class="row-icon-glyph" d="M36.7686 50.9215L36.9778 50.7064L36.9775 50.7062L36.7686 50.9215ZM36.9985 51.078L36.8751 51.3514L36.9339 51.378H36.9985V51.078ZM37.6481 51.078V51.378H37.7127L37.7715 51.3514L37.6481 51.078ZM37.878 50.9215L37.6691 50.7062L37.6688 50.7064L37.878 50.9215ZM38.8179 51.8895L38.6091 51.6742L38.6086 51.6746L38.8179 51.8895ZM35.8287 51.8895L36.038 51.6746L36.0376 51.6742L35.8287 51.8895ZM36.0844 39.7936L36.1992 40.0707H36.1992L36.0844 39.7936ZM39.6126 40.4954L39.8247 40.2832L39.6126 40.4954ZM39.6126 45.0739L39.8247 45.286L39.8247 45.286L39.6126 45.0739ZM36.0844 45.7757L35.9696 46.0528L36.0844 45.7757ZM35.0341 45.0739L34.8219 45.286H34.8219L35.0341 45.0739ZM34.3323 44.0235L34.6094 43.9087V43.9087L34.3323 44.0235ZM34.3323 41.5457L34.6094 41.6605V41.6605L34.3323 41.5457ZM37.3233 36.5794V36.8794C40.5854 36.8794 43.2285 39.4789 43.2285 42.6594H43.5285H43.8285C43.8285 39.1362 40.9053 36.2794 37.3233 36.2794V36.5794ZM31.1181 42.6594H31.4181C31.4181 39.4789 34.0612 36.8794 37.3233 36.8794V36.5794V36.2794C33.7414 36.2794 30.8181 39.1362 30.8181 42.6594H31.1181ZM36.7686 50.9215L36.9775 50.7062C35.2177 48.999 33.8197 47.384 32.864 45.9866C31.8983 44.5744 31.4181 43.4324 31.4181 42.6594H31.1181H30.8181C30.8181 43.6271 31.3939 44.8998 32.3688 46.3253C33.3537 47.7655 34.7809 49.4112 36.5597 51.1368L36.7686 50.9215ZM36.9985 51.078L37.1219 50.8045C37.0685 50.7804 37.0197 50.7473 36.9778 50.7064L36.7686 50.9215L36.5595 51.1366C36.6514 51.226 36.7582 51.2987 36.8751 51.3514L36.9985 51.078ZM37.6481 51.078V50.778H36.9985V51.078V51.378H37.6481V51.078ZM37.878 50.9215L37.6688 50.7064C37.6269 50.7473 37.5781 50.7804 37.5247 50.8045L37.6481 51.078L37.7715 51.3514C37.8884 51.2987 37.9952 51.226 38.0872 51.1366L37.878 50.9215ZM43.5285 42.6594H43.2285C43.2285 43.4324 42.7483 44.5744 41.7826 45.9866C40.8269 47.384 39.4289 48.999 37.6691 50.7062L37.878 50.9215L38.0869 51.1368C39.8657 49.4112 41.2929 47.7655 42.2778 46.3253C43.2527 44.8998 43.8285 43.6271 43.8285 42.6594H43.5285ZM37.3233 35.2305V34.9305C32.9903 34.9305 29.4692 38.3861 29.4692 42.6594H29.7692H30.0692C30.0692 38.7268 33.3122 35.5305 37.3233 35.5305V35.2305ZM44.8774 42.6594H45.1774C45.1774 38.3861 41.6563 34.9305 37.3233 34.9305V35.2305V35.5305C41.3344 35.5305 44.5774 38.7268 44.5774 42.6594H44.8774ZM38.8179 51.8895L39.0268 52.1048C40.1327 51.032 41.6607 49.4448 42.9143 47.7521C43.5412 46.9056 44.1041 46.0266 44.5113 45.1672C44.9172 44.3105 45.1774 43.4546 45.1774 42.6594H44.8774H44.5774C44.5774 43.3309 44.3554 44.095 43.9691 44.9103C43.5841 45.7228 43.045 46.5675 42.4322 47.395C41.2064 49.0501 39.7046 50.6114 38.6091 51.6742L38.8179 51.8895ZM37.3233 52.4971V52.7971C37.9599 52.7971 38.5713 52.5486 39.0273 52.1044L38.8179 51.8895L38.6086 51.6746C38.2647 52.0096 37.8035 52.1971 37.3233 52.1971V52.4971ZM35.8287 51.8895L35.6193 52.1044C36.0753 52.5486 36.6867 52.7971 37.3233 52.7971V52.4971V52.1971C36.8431 52.1971 36.382 52.0096 36.038 51.6746L35.8287 51.8895ZM29.7692 42.6594H29.4692C29.4692 43.4543 29.7294 44.3101 30.1353 45.1667C30.5425 46.0261 31.1054 46.9051 31.7323 47.7517C32.9859 49.4445 34.5138 51.032 35.6198 52.1048L35.8287 51.8895L36.0376 51.6742C34.942 50.6114 33.4402 49.0498 32.2144 47.3946C31.6016 46.567 31.0625 45.7223 30.6775 44.9098C30.2912 44.0946 30.0692 43.3306 30.0692 42.6594H29.7692ZM37.3233 40.8961V41.1961C38.199 41.1961 38.9118 41.9089 38.9118 42.7846H39.2118H39.5118C39.5118 41.5775 38.5304 40.5961 37.3233 40.5961V40.8961ZM35.4348 42.7846H35.7348C35.7348 41.9089 36.4476 41.1961 37.3233 41.1961V40.8961V40.5961C36.1162 40.5961 35.1348 41.5775 35.1348 42.7846H35.4348ZM37.3233 44.6731V44.3731C36.4476 44.3731 35.7348 43.6603 35.7348 42.7846H35.4348H35.1348C35.1348 43.9917 36.1162 44.9731 37.3233 44.9731V44.6731ZM39.2118 42.7846H38.9118C38.9118 43.6603 38.199 44.3731 37.3233 44.3731V44.6731V44.9731C38.5304 44.9731 39.5118 43.9917 39.5118 42.7846H39.2118ZM37.3233 39.5471V39.2471C36.8588 39.2471 36.3988 39.3386 35.9696 39.5164L36.0844 39.7936L36.1992 40.0707C36.5556 39.9231 36.9375 39.8471 37.3233 39.8471V39.5471ZM39.6126 40.4954L39.8247 40.2832C39.1613 39.6198 38.2615 39.2471 37.3233 39.2471V39.5471V39.8471C38.1024 39.8471 38.8495 40.1566 39.4004 40.7075L39.6126 40.4954ZM40.5608 42.7846H40.8608C40.8608 41.8464 40.4881 40.9466 39.8247 40.2832L39.6126 40.4954L39.4004 40.7075C39.9513 41.2584 40.2608 42.0055 40.2608 42.7846H40.5608ZM39.6126 45.0739L39.8247 45.286C40.4881 44.6226 40.8608 43.7228 40.8608 42.7846H40.5608H40.2608C40.2608 43.5637 39.9513 44.3108 39.4004 44.8617L39.6126 45.0739ZM37.3233 46.0221V46.3221C38.2615 46.3221 39.1613 45.9494 39.8247 45.286L39.6126 45.0739L39.4004 44.8617C38.8495 45.4126 38.1024 45.7221 37.3233 45.7221V46.0221ZM36.0844 45.7757L35.9696 46.0528C36.3988 46.2306 36.8588 46.3221 37.3233 46.3221V46.0221V45.7221C36.9375 45.7221 36.5556 45.6461 36.1992 45.4985L36.0844 45.7757ZM35.0341 45.0739L34.8219 45.286C35.1504 45.6145 35.5404 45.875 35.9696 46.0528L36.0844 45.7757L36.1992 45.4985C35.8428 45.3509 35.519 45.1345 35.2462 44.8617L35.0341 45.0739ZM34.3323 44.0235L34.0551 44.1383C34.2329 44.5675 34.4934 44.9575 34.8219 45.286L35.0341 45.0739L35.2462 44.8617C34.9734 44.589 34.757 44.2651 34.6094 43.9087L34.3323 44.0235ZM34.0858 42.7846H33.7858C33.7858 43.2492 33.8773 43.7092 34.0551 44.1383L34.3323 44.0235L34.6094 43.9087C34.4618 43.5523 34.3858 43.1704 34.3858 42.7846H34.0858ZM34.3323 41.5457L34.0551 41.4309C33.8773 41.8601 33.7858 42.3201 33.7858 42.7846H34.0858H34.3858C34.3858 42.3989 34.4618 42.0169 34.6094 41.6605L34.3323 41.5457ZM35.0341 40.4954L34.8219 40.2832C34.4934 40.6117 34.2329 41.0017 34.0551 41.4309L34.3323 41.5457L34.6094 41.6605C34.757 41.3041 34.9734 40.9803 35.2462 40.7075L35.0341 40.4954ZM36.0844 39.7936L35.9696 39.5164C35.5404 39.6942 35.1504 39.9547 34.8219 40.2832L35.0341 40.4954L35.2462 40.7075C35.519 40.4347 35.8428 40.2183 36.1992 40.0707L36.0844 39.7936Z"/>
  <defs>
    <linearGradient id="grad1" x1="65.457" y1="35.1505" x2="233.427" y2="35.1505" gradientUnits="userSpaceOnUse">
      <stop class="gradient-stop-1"/>
      <stop class="gradient-stop-2" offset="0.35"/>
    </linearGradient>
    <linearGradient id="grad2" x1="65.4569" y1="56.1521" x2="233.427" y2="56.1521" gradientUnits="userSpaceOnUse">
      <stop class="gradient-stop-1"/>
      <stop class="gradient-stop-2" offset="0.35"/>
    </linearGradient>
  </defs>
</svg>
