<!-- This Source Code Form is subject to the terms of the Mozilla Public
   - License, v. 2.0. If a copy of the MPL was not distributed with this
   - file, You can obtain one at http://mozilla.org/MPL/2.0/. -->
<svg width="24" height="24" fill="context-fill" fill-opacity="context-fill-opacity" xmlns="http://www.w3.org/2000/svg">
    <path fill-rule="evenodd" clip-rule="evenodd" d="M7 4h10V2h2v2.041A3 3 0 0 1 21.5 7v12a3 3 0 0 1-3 3h-13a3 3 0 0 1-3-3V7A3 3 0 0 1 5 4.041V2h2v2zM4.5 19a1 1 0 0 0 1 1h13a1 1 0 0 0 1-1v-8h-15v8zm1-13a1 1 0 0 0-1 1v2h15V7a1 1 0 0 0-1-1h-13z"/>
</svg>