<!-- This Source Code Form is subject to the terms of the Mozilla Public
   - License, v. 2.0. If a copy of the MPL was not distributed with this
   - file, You can obtain one at http://mozilla.org/MPL/2.0/. -->
<svg width="26" height="26" viewBox="0 0 26 26" fill="context-fill" xmlns="http://www.w3.org/2000/svg">
  <path d="M24.3095 8.8538C23.7791 7.57797 22.7049 6.20058 21.8613 5.76523C22.5478 7.11119 22.9452 8.46136 23.097 9.46901C23.097 9.47099 23.0978 9.47592 23.0994 9.48932C21.7194 6.04976 19.3795 4.66282 17.4687 1.64296C17.3723 1.49026 17.2755 1.33716 17.1813 1.17577C17.1333 1.09335 17.0885 1.00913 17.0469 0.923289C16.9675 0.770024 16.9063 0.60802 16.8645 0.440563C16.8647 0.432635 16.8621 0.424884 16.8569 0.418833C16.8518 0.412782 16.8446 0.408868 16.8367 0.40786C16.8292 0.405713 16.8213 0.405713 16.8138 0.40786C16.8121 0.408469 16.8096 0.410449 16.8077 0.41116C16.805 0.412227 16.8016 0.414664 16.7988 0.416238C16.8002 0.41441 16.803 0.410297 16.8039 0.409332C13.7382 2.20475 12.6982 5.5261 12.6026 7.18782C12.7448 7.17797 12.8866 7.16603 13.0313 7.16603C15.3192 7.16603 17.3117 8.42388 18.3786 10.2883C17.727 9.83052 16.5601 9.37842 15.436 9.57393C19.8256 11.7684 18.6471 19.3252 12.5646 19.04C12.0229 19.0179 11.4876 18.9146 10.9766 18.7337C10.8557 18.6882 10.7362 18.6394 10.6181 18.5871C10.5492 18.5558 10.4804 18.524 10.4124 18.4889C10.4149 18.4906 10.4182 18.4924 10.4207 18.494C10.3611 18.4653 10.3018 18.4358 10.243 18.4054C10.3001 18.4327 10.3537 18.4625 10.4123 18.4887C8.92186 17.7184 7.69123 16.2628 7.53751 14.4951C7.53751 14.4951 8.10083 12.396 11.5712 12.396C11.9463 12.396 13.0189 11.3492 13.0387 11.0456C13.0342 10.9465 10.9101 10.1016 10.0821 9.28574C9.63965 8.84984 9.42957 8.63965 9.24351 8.48198C9.14257 8.39672 9.03704 8.31704 8.92739 8.2433C8.64923 7.27013 8.63741 6.24012 8.89317 5.26082C7.63948 5.83165 6.66438 6.73398 5.95547 7.53074H5.94984C5.46604 6.91796 5.50017 4.89657 5.52774 4.47452C5.52195 4.44837 5.16684 4.65886 5.12032 4.6906C4.69341 4.99532 4.29431 5.33723 3.92768 5.71232C3.51059 6.13547 3.12951 6.59266 2.7884 7.07915C2.7884 7.07975 2.78804 7.08047 2.78784 7.08107C2.78784 7.08041 2.7882 7.07975 2.7884 7.07915C2.00364 8.19123 1.44707 9.44781 1.15086 10.7763C1.14502 10.8027 1.14009 10.8302 1.1344 10.8568C1.11145 10.9643 1.00816 11.5095 0.993738 11.6265C0.992621 11.6354 0.994805 11.6175 0.993738 11.6265C0.899547 12.1899 0.839448 12.7585 0.81377 13.3291C0.81377 13.35 0.8125 13.3706 0.8125 13.3915C0.8125 20.1305 6.27656 25.5937 13.0165 25.5937C19.0526 25.5937 24.0644 21.2119 25.0456 15.4562C25.0663 15.3 25.0828 15.143 25.1011 14.9854C25.3437 12.8927 25.0742 10.6931 24.3095 8.8538ZM23.0989 9.48049C23.0995 9.48481 23.1002 9.48932 23.1009 9.49364L23.1005 9.49232L23.0989 9.48049Z"/>
</svg>
