<!-- This Source Code Form is subject to the terms of the Mozilla Public
   - License, v. 2.0. If a copy of the MPL was not distributed with this
   - file, You can obtain one at http://mozilla.org/MPL/2.0/. -->
<svg xmlns="http://www.w3.org/2000/svg" width="52" height="64" fill="none" viewBox="0 0 52 64">
  <path fill="#623AC3" d="M44 6H8a8 8 0 0 0-8 8v36a8 8 0 0 0 8 8h36a8 8 0 0 0 8-8V14a8 8 0 0 0-8-8Z"/>
  <path fill="#F4F0FF" d="M6.64 56.872c.45.088.909.133 1.368.132v1l-.412-.01a8.015 8.015 0 0 1-1.15-.143l.195-.98H6.64Zm3.168.132v1h-1.8v-1h1.8Zm7.2 0v1h-3.6v-1h3.6Zm7.2 0v1h-3.6v-1h3.6Zm7.2 0v1h-3.6v-1h3.6Zm7.2 0v1h-3.6v-1h3.6Zm5.4 0v1h-1.8v-1h1.8Zm1.56.847a8.016 8.016 0 0 1-1.148.143l-.412.01v-1c.468 0 .926-.045 1.367-.132l.193.979ZM2.187 53.893a7.044 7.044 0 0 0 1.932 1.933l-.28.415h.002l-.28.415a8.043 8.043 0 0 1-2.206-2.207l.832-.556Zm48.057.278.415.278a8.042 8.042 0 0 1-2.207 2.207l-.277-.414-.278-.416a7.043 7.043 0 0 0 1.932-1.933l.415.278ZM.008 50.004v-1.8h1v1.8c0 .47.045.926.133 1.368l-.98.193a8.01 8.01 0 0 1-.142-1.148l-.011-.413Zm51.99.413c-.02.39-.07.774-.143 1.148l-.98-.193c.087-.442.133-.9.133-1.368v-1.8h1v1.8l-.01.413Zm-50.99-9.413v3.6h-1v-3.6h1Zm51 0v3.6h-1v-3.6h1Zm-51-7.2v3.6h-1v-3.6h1Zm51 0v3.6h-1v-3.6h1Zm-51-7.2v3.6h-1v-3.6h1Zm51 0v3.6h-1v-3.6h1Zm-51-7.2v3.6h-1v-3.6h1Zm51 0v3.6h-1v-3.6h1Zm-52-5.4c0-.534.052-1.056.152-1.561l.98.194c-.089.45-.133.908-.132 1.367v1.8h-1v-1.8Zm52 1.8h-1v-1.8c0-.468-.046-.925-.133-1.367l.98-.194c.1.505.153 1.027.153 1.56v1.8ZM3.724 7.594l.395.59a7.044 7.044 0 0 0-1.932 1.932l-.832-.557a8.044 8.044 0 0 1 2.208-2.207l.16.24v.002Zm44.728-.242a8.043 8.043 0 0 1 2.207 2.207l-.83.557a7.044 7.044 0 0 0-1.932-1.933l.395-.59.16-.241ZM9.808 6.004v1h-1.8a7.04 7.04 0 0 0-1.367.133l-.195-.98c.38-.075.764-.123 1.15-.142l.412-.01 1.8-.001Zm34.612.01c.39.02.774.069 1.148.143l-.193.98a7.039 7.039 0 0 0-1.367-.133h-1.8v-1h1.8l.412.01Zm-27.412-.01v1h-3.6v-1h3.6Zm7.2 0v1h-3.6v-1h3.6Zm7.2 0v1h-3.6v-1h3.6Zm7.2 0v1h-3.6v-1h3.6Z"/>
  <path fill="#623AC3" d="M10.868 62.356c1.753 1.83 6.245.545 7.717-1.535 1.203 1.782 2.834 2.744 4.931 2.86 2.5-.02 4.247-1.377 6.762-3.431 2.514-2.055 5.947-4.148 5.947-4.148s-10.039-.394-14.29.367c-1.67.298-3.9 0-5.736.895-2.146 1.04-3.804 2.453-5.389 4.571l.058.421Z"/>
  <path fill="#FEF9DF" d="M11.629 14.26s.587-7.771 2.513-10.42c1.685-2.32 3.063.068 3.236 1.233"/>
  <path stroke="#7844F0" stroke-linecap="round" stroke-linejoin="round" stroke-width=".5" d="M11.629 14.26s.587-7.771 2.513-10.42c1.685-2.32 3.063.068 3.236 1.233"/>
  <path fill="#FE780A" d="m34.24 37.977-4.43 3.757 6.198 16.27L43.773 58l1.724-.162c-2.696-7.378-9.59-15.62-12.114-18.096-.26-.25.992-1.63.857-1.765Z"/>
  <path fill="#FEF9DF" d="M4.09 25.372s2.82-4.371 11.17.164l12.24.029 7.713 1.618 5.152 4.998-10.43 10.544 6.886 15.253H11.235l1.868-17.555S5.438 32.661 4.09 25.372Z"/>
  <path fill="#FEBC4D" d="m40.46 32.28-5.932-6.166-1.608-.11c.567.127-2.182 10.695-5.895 14.278-3.714 3.583-3.368 7.796-3.368 7.796s2.974 4.223 4.216 5.866c1.011 1.335 2.023 2.72 3.024 4.056l5.938.004c-1.454-3.93-2.866-7.913-4.31-11.842-.598-1.623-1.222-3.765-.384-5.398.683-1.317 1.638-1.511 2.678-2.558 1.95-1.2 3.763-4.061 5.505-5.81l.126-.124.01.01v-.001Z"/>
  <path fill="#F99F1F" d="m14.401 25.411 10.641 1.454s9.062-2.62 15.263 5.412c-.337-3.573-2.687-12.942-2.687-12.942l-.577-11.508c-.328-3.312-.732-5.777-1.406-5.835-1.435-.135-11.363 13.944-11.363 13.944l-1.454-.318S22.914 1.202 21.2 1.02C18.802.75 11.166 13.865 11.166 13.865L4.03 25.122c.02.068.04.135.068.202 1.28-1.637 6.462-2.648 10.304.087Z"/>
  <path fill="#FE780A" d="m37.61 19.325-.336-6.74-.434-6.54c-.144-1.203-.317-2.214-.52-2.927l-.674-1.126s-.976 12.23-2.755 25.08c2.523.76 5.124 2.23 7.512 5.33l-1.67-9.123a29.635 29.635 0 0 0-1.103-3.954h-.02ZM21.18 1s-3.042 9.254-3.138 13.067c-.02.684.48 1.281 1.155 1.406l3.87.414S23.023 1.854 21.18 1Z"/>
  <path fill="#F99F1F" d="m12.178 39.095.29 1.213L8.48 58.22l3.63-.202 1.389-17.17a1.029 1.029 0 0 0-.348-.866c-.405-.366-.963-.886-.963-.886h-.01Z"/>
  <path fill="#7844F0" d="M18.392 22.18s0-.076.01-.115l-.02.125c.02-.154.068-.308.126-.452l-.048.115c.055-.133.126-.259.212-.375l-.077.096c.058-.067.115-.144.183-.202l-.097.077s.058-.048.097-.058l-.116.048s.048-.019.068-.019l-.126.02h.049l-.126-.02s.03 0 .049.01l-.116-.049s.029.01.038.02l-.096-.077.029.03-.077-.098s.02.03.029.05l-.048-.117s.01.048.019.067l-.02-.125v.125l.02-.125c-.02.106-.058.202-.096.3l.048-.117a2.728 2.728 0 0 1-.318.54l.077-.097s-.038.048-.048.067c-.087.106-.145.203-.145.337 0 .116.049.26.145.337a.555.555 0 0 0 .337.145c.116 0 .26-.048.337-.145.173-.21.327-.423.433-.674.116-.27.24-.577.145-.876a.644.644 0 0 0-.772-.456c-.103.02-.2.06-.287.12-.23.167-.415.388-.54.644a2.34 2.34 0 0 0-.25.915c0 .116.058.26.144.337a.56.56 0 0 0 .337.145c.116 0 .25-.048.337-.145a.56.56 0 0 0 .145-.337l.01.01h-.001Zm5.72 1.08s0-.068.01-.097l-.02.125c.03-.22.087-.443.174-.645l-.048.116a1.81 1.81 0 0 1 .23-.424l-.076.096s.067-.077.106-.115l-.096.077.086-.058-.115.048s.048-.02.077-.02l-.126.02h.078l-.126-.02s.039 0 .058.02l-.115-.048s.038.02.048.03l-.097-.078.039.038-.077-.096s.02.03.029.048l-.048-.115s.019.048.019.077l-.02-.126v.126l.02-.126c-.02.135-.067.27-.116.405l.049-.116c-.062.143-.14.28-.232.405l.078-.096a1.705 1.705 0 0 1-.29.298.51.51 0 0 0-.144.337c0 .116.048.26.145.337.096.077.21.145.337.145a.51.51 0 0 0 .337-.145c.21-.173.385-.395.52-.636.144-.26.26-.577.27-.876a.778.778 0 0 0-.28-.616.725.725 0 0 0-.655-.116c-.346.097-.558.415-.703.732-.163.347-.25.694-.29 1.08a.451.451 0 0 0 .146.336c.09.088.21.14.337.144a.468.468 0 0 0 .337-.144.594.594 0 0 0 .144-.337v.01Z"/>
  <path fill="#FEF9DF" d="M13.98 28.907c.615 1.8 2.35 3.322 4.11 3.823 2.428.703 5.663 0 7.117-2.206 2.706-4.092-1.974-8.84-6.124-8.175-2.157.346-4.305 1.743-5.085 3.852-.337.915-.298 1.839 0 2.706h-.018Z"/>
  <path fill="#7844F0" d="M17.715 23.774c-.145.26 1.358 2.022 3.312 1.502.472-.125.934-.27 1.368-.5.26-.145.385-.357.115-.607-.972-.876-4.381-1.136-4.795-.395Z"/>
  <path stroke="#7844F0" stroke-linecap="round" stroke-linejoin="round" stroke-width=".5" d="M16.242 25.72c.79 1.174 4.988 2.686 7.26.885"/>
  <path fill="#FEBC4D" d="M23.098 23.34c.414.155 1.83 1.445 2.186 1.927.886 1.213.944 2.908.318 4.275-.626 1.368-1.849 2.398-3.226 2.986-.376.163-.77.288-1.175.279 1.81-.55 3.216-2.36 3.66-4.2.674-2.811-1.763-5.267-1.763-5.267Z"/>
  <path stroke="#7844F0" stroke-linejoin="round" stroke-width=".5" d="M13.98 28.907c.615 1.8 2.35 3.322 4.111 3.823 2.715.78 6.307-.202 7.52-2.947 1.474-3.313-1.502-6.798-4.728-7.405a5.445 5.445 0 0 0-1.81-.04c-2.157.348-4.304 1.744-5.084 3.853-.338.915-.299 1.84 0 2.706l-.01.01Z"/>
  <path stroke="#7844F0" stroke-linecap="round" stroke-linejoin="round" stroke-width=".5" d="M20.893 15.6c2.195.124 3.447.336 3.447.336"/>
  <path stroke="#7844F0" stroke-linecap="round" stroke-linejoin="round" stroke-width=".5" d="M8.796 57.978s1.503-11.488 3.66-17.102a1.41 1.41 0 0 0-.299-1.483c-1.723-1.8-5.806-6.192-8.098-13.674a1.395 1.395 0 0 1 .26-1.29l7.078-10.66s7.617-13 9.995-12.75c1.714.183 1.531 14.714 1.531 14.714l1.416.183S34.286 1.982 35.721 2.107c.674.058 1.03 2.186 1.358 5.5m.74 11.728s2.004 8.233 2.562 12.268a1.827 1.827 0 0 1-.558 1.56s-1.16 1.494-2.895 3.29c-.595.616-3.917 3.047-3.917 3.047s8.849 9.545 12.512 18.112M37.09 7.66s.36 4.184.707 11.647"/>
  <path fill="#F99F1F" d="M19.517 53.342s1.406 2.802 1.445 3.409h-2.437s.886-.741.992-3.41Z"/>
  <path fill="#F99F1F" d="m17.96 55.036-.54 2.003c-1.28 4.555-4.622 7.483-8.426 4.584C7.05 60.14 7.088 57.781 7.55 55.2c.683-3.823 3.226-7.28 6.74-6.885 3.515.395 6.173 4.94 6.173 4.94s-1.55 2.985-2.687 3.457"/>
  <path fill="#FE780A" d="M20.165 52.62c-.837-1.28-2.387-3.226-4.082-3.843a2.823 2.823 0 0 0-1.435-.154c.578 3.245.684 6.77-1.598 9.428-1.03 1.203-2.34 1.79-3.89 1.964-.935.106-.945.202-.608 1.117.155.424.578.366.848.732 1.483 1.993 4.256.857 5.69-.655.5-.53 2.379-3.592 2.303-3.6 1.646.143 3.59.644 5.228.423.145-.02-2.157-4.93-2.455-5.403v-.01l-.001.001Z"/>
  <path stroke="#7844F0" stroke-linecap="round" stroke-linejoin="round" stroke-width=".5" d="M21.706 56.693c-.905-3.65-4.054-7.993-7.415-8.378-3.36-.385-6.057 3.062-6.74 6.885-.463 2.581-.184 5.335 1.8 6.75 1.59 1.137 2.947.713 4.035.357 3.447-1.146 4.497-7.26 4.497-7.26"/>
  <path stroke="#7844F0" stroke-linecap="round" stroke-linejoin="round" stroke-width=".5" d="M9.36 61.96c-1.531-1.252-.847-4.237-.568-5.402m3.226 6.105c-1.637-.722-.414-4.4-.058-5.797"/>
  <path fill="#FEF9DF" d="M27.605 56.972c-1.338 4.738-4.438 8.108-8.406 5.094-2.022-1.54-2.35-4.333-1.868-7.02.713-3.977 3.35-7.578 7.02-7.155 3.669.424 6.423 5.143 6.423 5.143s-.048 3.63-1.223 4.12"/>
  <path fill="#FEBC4D" d="M29.907 52.07c-.837-1.28-2.388-3.225-4.083-3.84a2.823 2.823 0 0 0-1.434-.155c.327 1.848.433 3.755.28 5.633-.155 1.878-.608 4.015-1.696 5.69-.54.84-1.108 1.696-2.1 2.052-.356.125-1.26.366-.99.944.143.298.48.443.76.568.317.144.731.327 1.088.366.626.086 1.652-.02 2.191-.31a6.862 6.862 0 0 0 1.695-1.32c.491-.52.98-1.334 1.318-1.979.077-.154.48-1.7.48-1.7l4.73-.03s-1.94-5.447-2.239-5.919Z"/>
  <path fill="#FE780A" d="M30.39 52.94s1.78 3.843 1.761 5.064L29.615 58s.67-2.268.774-5.06Z"/>
  <path stroke="#7844F0" stroke-linecap="round" stroke-linejoin="round" stroke-width=".5" d="M28.26 55.98s-2.137 11.017-9.051 6.086c-2.06-1.464-2.35-4.333-1.868-7.02.712-3.977 3.35-7.578 7.02-7.155 3.669.424 6.852 5.256 7.91 9.879"/>
  <path stroke="#7844F0" stroke-linecap="round" stroke-linejoin="round" stroke-width=".5" d="M19.42 62.21s-1.28-1.087-.386-5.209m3.68 6.192s-1.521-.722-.211-5.961"/>
  <path fill="#FEBC4D" d="M36.647 9.699s2.483-2.228 3.09-.931c.26.565-.026 1.521-.157 2.095-.207.93-.683 1.796-.908 2.71 1.654.366 1.316 1.688.745 3.026a18.386 18.386 0 0 1-1.084 2.078c-.25.416-1.081 1.48-1.081 1.48"/>
  <path stroke="#7844F0" stroke-linejoin="round" stroke-width=".5" d="M36.647 9.699s2.483-2.228 3.09-.931c.26.565-.026 1.521-.157 2.095-.207.93-.683 1.796-.908 2.71 1.654.366 1.316 1.688.745 3.026a18.386 18.386 0 0 1-1.084 2.078c-.25.416-1.081 1.48-1.081 1.48"/>
  <path stroke="#7844F0" stroke-linecap="round" stroke-width=".5" d="M31.088 40.672c.656-.185 2.377-1.504 2.377-1.504"/>
  <path fill="#F4F0FF" d="M31.55 58.004v-1h-3.575v1h3.575Zm7.152 0v-1h-3.576v1h3.576Zm5.364 0h-1.788v-1h1.788c.465 0 .92-.045 1.357-.132l.192.98a7.923 7.923 0 0 1-1.14.142l-.41.01Z"/>
</svg>
