<!-- This Source Code Form is subject to the terms of the Mozilla Public
   - License, v. 2.0. If a copy of the MPL was not distributed with this
   - file, You can obtain one at http://mozilla.org/MPL/2.0/. 
   - This file may include images of registered trademarks belonging to third-parties. 
   - Please note that the Mozilla Public License 2.0 does not grant any license or rights to trademarks. See MPL 2.0, Section 2.1(a). -->
<svg width="24" height="24" viewBox="0 0 24 24" fill="context-fill" xmlns="http://www.w3.org/2000/svg">
  <path fill-rule="evenodd" clip-rule="evenodd" d="M8.79942 0C7.47274 0.000978593 6.39904 1.07547 6.40002 2.39951C6.39904 3.72355 7.47372 4.79804 8.8004 4.79902H11.2008V2.40049C11.2018 1.07645 10.1271 0.00195719 8.79942 0C8.8004 0 8.8004 0 8.79942 0V0ZM8.79942 6.4H2.40038C1.0737 6.40098 -0.000977866 7.47547 2.67971e-06 8.79951C-0.00195841 10.1235 1.07272 11.198 2.3994 11.2H8.79942C10.1261 11.199 11.2008 10.1245 11.1998 8.80049C11.2008 7.47547 10.1261 6.40098 8.79942 6.4Z"/>
  <path fill-rule="evenodd" clip-rule="evenodd" d="M24.0006 8.79951C24.0016 7.47547 22.9269 6.40098 21.6002 6.4C20.2736 6.40098 19.1989 7.47547 19.1999 8.79951V11.2H21.6002C22.9269 11.199 24.0016 10.1245 24.0006 8.79951ZM17.6006 8.79951V2.39951C17.6016 1.07645 16.5279 0.00195719 15.2012 0C13.8745 0.000978593 12.7998 1.07547 12.8008 2.39951V8.79951C12.7988 10.1235 13.8735 11.198 15.2002 11.2C16.5269 11.199 17.6016 10.1245 17.6006 8.79951Z"/>
  <path fill-rule="evenodd" clip-rule="evenodd" d="M15.1992 24C16.5259 23.9991 17.6006 22.9246 17.5996 21.6005C17.6006 20.2765 16.5259 19.202 15.1992 19.201H12.7988V21.6005C12.7978 22.9236 13.8725 23.9981 15.1992 24ZM15.1992 17.5991H21.5992C22.9259 17.5981 24.0006 16.5236 23.9996 15.1996C24.0016 13.8755 22.9269 12.801 21.6002 12.7991H15.2002C13.8735 12.8001 12.7988 13.8745 12.7998 15.1986C12.7988 16.5236 13.8725 17.5981 15.1992 17.5991Z"/>
  <path fill-rule="evenodd" clip-rule="evenodd" d="M6.7046e-07 15.1994C-0.000979875 16.5235 1.0737 17.598 2.40038 17.599C3.72705 17.598 4.80173 16.5235 4.80075 15.1994V12.7999H2.40038C1.0737 12.8009 -0.000979875 13.8754 6.7046e-07 15.1994ZM6.40002 15.1994V21.5995C6.39806 22.9235 7.47274 23.998 8.79942 24C10.1261 23.999 11.2008 22.9245 11.1998 21.6005V15.2014C11.2018 13.8774 10.1271 12.8029 8.8004 12.8009C7.47274 12.8009 6.39904 13.8754 6.40002 15.1994C6.40002 15.2004 6.40002 15.1994 6.40002 15.1994Z"/>
</svg>
