<!-- This Source Code Form is subject to the terms of the Mozilla Public
   - License, v. 2.0. If a copy of the MPL was not distributed with this
   - file, You can obtain one at http://mozilla.org/MPL/2.0/. -->
<svg xmlns="http://www.w3.org/2000/svg" width="320" height="154" fill="none">
  <rect width="320" height="154" fill="#ddcfff" rx="4"/>
  <path fill="#fff" d="M86.047 38.507v-9.64h26.651v9.64"/>
  <path stroke="#000" stroke-linecap="round" stroke-linejoin="round" stroke-width=".75" d="M86.047 38.507v-9.64h26.651v9.64"/>
  <path stroke="#000" stroke-linecap="round" stroke-linejoin="round" stroke-width=".5" d="M92.72 34.844a1.22 1.22 0 1 0-.002-2.442 1.22 1.22 0 0 0 .002 2.442m4.804 0a1.22 1.22 0 1 0-.003-2.44 1.22 1.22 0 0 0 .003 2.44m4.804 0a1.218 1.218 0 0 0 1.194-1.46 1.215 1.215 0 0 0-.959-.958 1.22 1.22 0 1 0-.235 2.418"/>
  <path fill="#fff" stroke="#000" stroke-linecap="round" stroke-linejoin="round" stroke-width=".75" d="M233.953 38.508H143.11V26.933A1.935 1.935 0 0 0 141.177 25h-26.546a1.934 1.934 0 0 0-1.933 1.933v11.575H86.047v89.528h147.009z"/>
  <path fill="#fff" stroke="#000" stroke-linecap="round" stroke-linejoin="round" stroke-width=".75" d="M170.845 25.009H144.9a1.93 1.93 0 0 0-1.932 1.933v11.566h29.866V26.504c0-.826-.89-1.495-1.989-1.495m61.119 0H204.43a1.934 1.934 0 0 0-1.933 1.933v11.566h31.456V27.603c0-1.434-.89-2.594-1.989-2.594"/>
  <path stroke="#000" stroke-width=".5" d="M220.437 30.906v-1.124a2.256 2.256 0 1 0-4.517 0v1.124"/>
  <rect width="7.778" height="5.147" x="214.25" y="30.591" fill="#c3c4fd" stroke="#000" stroke-width=".5" rx=".75"/>
  <circle cx="218.269" cy="32.418" r=".7" fill="#000"/>
  <rect width=".7" height="2.8" x="217.905" y="31.718" fill="#000" rx=".35"/>
  <path fill="#fff" stroke="#000" stroke-linecap="round" stroke-linejoin="round" stroke-width=".5" d="M226.221 44.518H93.779c-.43 0-.779.283-.779.633v5.733c0 .35.349.634.779.634H226.22c.43 0 .779-.284.779-.634V45.15c0-.35-.349-.633-.779-.633m.109 12.001H93.804a.804.804 0 0 0-.804.804v63.557c0 .444.36.803.804.803h132.525a.803.803 0 0 0 .804-.803V57.322a.804.804 0 0 0-.804-.804"/>
  <path fill="#c3c4fd" d="m132.277 34.273-8.709.008-.298-4.646 10.321.125z"/>
  <path fill="#fff" stroke="#000" stroke-linecap="round" stroke-linejoin="round" stroke-width=".75" d="M200.508 25.009h-25.742a1.93 1.93 0 0 0-1.932 1.933v11.566H202.5V26.873c-.003-1.03-.894-1.864-1.992-1.864"/>
  <path fill="#c3c4fd" stroke="#000" stroke-linecap="round" stroke-linejoin="round" stroke-width=".5" d="M125.189 38.43a1.235 1.235 0 1 0 0-2.47 1.235 1.235 0 0 0 0 2.47m5.972 0a1.235 1.235 0 1 0 0-2.47 1.235 1.235 0 0 0 0 2.47"/>
  <path stroke="#000" stroke-linecap="round" stroke-linejoin="round" stroke-width=".5" d="m121.576 27.895 1.523.09.47 6.297 8.71-.009 1.313-4.513-10.321-.124m7.964 6.327-6.288-.018a1.444 1.444 0 0 1-1.361-1.521"/>
  <path fill="#000" d="M171.307 77.991a4.62 4.62 0 0 0-4.265-2.827 4.6 4.6 0 0 0-3.841 2.037 4.6 4.6 0 0 0-.611 1.342h-6.506a3.3 3.3 0 0 0-.187-.552 3 3 0 0 0-.257-.502l2.326-2.325h.007a4.6 4.6 0 0 0 2.305.61 4.5 4.5 0 0 0 1.799-.366 4.62 4.62 0 0 0 2.833-4.266 4.627 4.627 0 0 0-4.632-4.624 4.62 4.62 0 0 0-4.28 2.853 4.6 4.6 0 0 0-.351 1.772 4.6 4.6 0 0 0 .578 2.236l-2.357 2.356a4.6 4.6 0 0 0-2.236-.57 4.6 4.6 0 0 0-3.842 2.035 4.67 4.67 0 0 0-.79 2.59c-.001.62.123 1.234.366 1.804a4.65 4.65 0 0 0 1.677 2.037 4.6 4.6 0 0 0 2.589.79 4.64 4.64 0 0 0 3.835-2.043c.281-.406.49-.859.617-1.336h6.501q.076.283.193.552a5 5 0 0 0 .212.431l-2.357 2.357a4.6 4.6 0 0 0-2.236-.572c-.619 0-1.233.123-1.805.36a4.625 4.625 0 0 0-2.827 4.266c-.001.62.123 1.234.367 1.805a4.7 4.7 0 0 0 1.676 2.036 4.64 4.64 0 0 0 4.761.242 4.64 4.64 0 0 0 2.46-4.083 4.66 4.66 0 0 0-.617-2.307l2.319-2.319h.007a4.638 4.638 0 0 0 6.937-4.02 4.6 4.6 0 0 0-.368-1.799m-12.995-7.677a2.15 2.15 0 0 1 1.76-1.294 2.14 2.14 0 0 1 1.986.942 2.142 2.142 0 0 1-1.779 3.32 2.14 2.14 0 0 1-1.773-.944 2.16 2.16 0 0 1-.193-2.024zm-4.716 10.31a2.137 2.137 0 0 1-3.741.36 2.15 2.15 0 0 1-.194-2.024 2.141 2.141 0 0 1 2.797-1.136 2.13 2.13 0 0 1 1.303 1.965c.003.288-.053.573-.165.838zm6.765 8.647a2.136 2.136 0 1 1-.19-2.015c.232.35.355.76.354 1.18.003.288-.053.573-.164.838zm8.646-8.647a2.137 2.137 0 0 1-3.741.36 2.15 2.15 0 0 1-.194-2.024 2.141 2.141 0 0 1 2.797-1.136 2.13 2.13 0 0 1 1.304 1.965c.002.288-.054.573-.166.838z"/>
  <path fill="#8adf8d" stroke="#000" stroke-miterlimit="10" stroke-width=".75" d="m163.908 110.332-10.88-.063c-1.342-.007-2.626-.498-3.569-1.364s-1.467-2.037-1.459-3.254.55-2.381 1.505-3.236 2.245-1.331 3.587-1.323l10.88.062c1.342.008 2.626.499 3.569 1.365s1.467 2.036 1.459 3.253-.55 2.381-1.505 3.236-2.245 1.331-3.587 1.324Z"/>
  <path fill="#fff" stroke="#000" stroke-miterlimit="10" stroke-width=".75" d="M167.727 108.736a4.346 4.346 0 1 0-6.147-6.146 4.346 4.346 0 0 0 6.147 6.146Z"/>
  <path fill="#c3c4fd" stroke="#000" stroke-linecap="round" stroke-linejoin="round" stroke-width=".5" d="M191.669 36.051a3.42 3.42 0 0 0-3.423-3.366 3.426 3.426 0 0 0-3.423 3.366z"/>
  <path fill="#c3c4fd" stroke="#000" stroke-linecap="round" stroke-linejoin="round" stroke-width=".5" d="M188.245 31.72a2.1 2.1 0 1 0 0-4.201 2.1 2.1 0 0 0 0 4.2m-25.816-2.343h-8.655a.833.833 0 0 0-.833.833v4.942c0 .46.373.833.833.833h8.655c.46 0 .833-.373.833-.833v-4.942a.833.833 0 0 0-.833-.833"/>
  <path fill="#fff" d="M156.257 29.233v-1.095a.62.62 0 0 1 .62-.62h2.449a.62.62 0 0 1 .62.62v1.095"/>
  <path stroke="#000" stroke-linecap="round" stroke-linejoin="round" stroke-width=".5" d="M156.257 29.233v-1.095a.62.62 0 0 1 .62-.62h2.449a.62.62 0 0 1 .62.62v1.095m-4.425.321v6.255m5.16-6.255v6.255"/>
  <path fill="#fff" stroke="#000" stroke-miterlimit="10" stroke-width=".5" d="M96.737 49.03a1.344 1.344 0 1 0 0-2.688 1.344 1.344 0 0 0 0 2.689Z"/>
</svg>
